<?xml version='1.0' encoding='utf-8'?>
<svg xmlns="http://www.w3.org/2000/svg" width="245.35mm" height="283.89mm" version="1.1" viewBox="0 0 869.36 1005.9"> <g transform="translate(220.85 75.189)"> <g transform="matrix(2.0421 0 0 2.0581 -296.69 -1223.5)" fill="#d35f8d" stroke="#ff80b2"> <path d="m250 571.78 199.69 115.29-1e-5 230.58-199.69 115.29-199.69-115.29 7e-6 -230.58z" fill="#d35f8d" stroke="#ff80b2" stroke-linecap="round" stroke-width="8.9979"/> </g> </g> <g transform="translate(150.58 339.27)"> <g transform="matrix(.40301 0 0 .45508 -2.0493 347.32)"> <g transform="translate(118.33 -6.7213)" fill="none" stroke="#fff" stroke-miterlimit="4"> <path transform="matrix(2.4813 0 0 2.2349 112.76 -807.19)" d="m81.936 373.02c-1.9169 4.3452-3.4299 7.3759-2.5547 12.248 0.91351 3.1695 1.9826 6.2985 2.248 9.6406-0.12977 2.8639-1.3161 5.5495-2.248 8.1641 1.4871-7.2645 0.02385-12.98-3.4727-20.867 1.4082 6.8402 1.486 10.492-0.61328 17.92-5.6097 5.0487-10.047 8.6535-10.879 16.582l-0.05078-0.0254c-0.336 14.325-5.9111 11.455-4.0859 1.9277-7.0248 14.869 1.3262 27.998 20.941 26.766 14.744-0.6802 23.094-11.154 21.451-27.785l-0.23047 0.53321c-0.22671-4.7352-1.9744-8.895-4.3672-12.895 0.34177 16.227-10.049 6.0385-5.0039-10.547-3.0688 4.0207-6.2683 6.4733-7.1504 12.701-0.25241-1.2144-0.36354-2.1637 0-3.4023-1.1815 2.0496-2.1255 3.7133-2.248 6.2383-1.0123-6.7434 6.7456-12.862 1.6348-22.91-2.1357-3.5061-4.4167-8.659-3.3711-14.289z" stroke-linejoin="miter" stroke-width="2.9748"/> <g stroke-width="7.0052"> <path transform="matrix(2.4813 0 0 2.2349 112.76 -807.19)" d="m73.252 386.69c-1.1842 2.6334-2.2138 4.6375-1.3262 8.5059 0.47082 1.9748-0.05901 4.0858 0.30469 5.9531 1.5897-1.5938 2.5154-3.4802 2.4238-5.9726 0.26032-3.3638-0.5785-4.086-1.1465-5.9356-0.26371-0.85874-0.25586-2.5508-0.25586-2.5508z" fill="none" stroke="#fff" stroke-linejoin="miter" stroke-miterlimit="4" stroke-width="2.9748"/> </g> <g transform="matrix(-.84283 -.12741 -.10598 .84308 578.31 7.792)" stroke-width="8.2324"> <path transform="matrix(-2.8891 -.4366 -.32712 2.6014 661.35 -866.72)" d="m85.148 369.38s-0.15475 1.4286-0.45898 2.1152c-0.65476 1.4779-1.4286 1.9691-1.5312 4.8359-0.31668 2.0904 0.28213 3.8151 1.4707 5.3848 0.48478-1.5228 0.24084-3.3782 0.82617-4.9766 1.1174-3.1358 0.44007-4.9717-0.30664-7.3594z" fill="none" stroke="#fff" stroke-linejoin="miter" stroke-miterlimit="4" stroke-width="2.9748"/> </g> </g> </g> <g transform="matrix(1.5113 0 0 1.6261 -184.21 -276.18)"> <path d="m272.47 125.07c1.7665-18.41 12.946-26.529 27.12-38.019 5.209-16.6 5.015-24.759 1.5208-40.046 8.6759 17.627 12.307 30.401 8.6176 46.636 2.3125-5.8433 5.2541-11.849 5.5761-18.249-0.65863-7.4693-3.3094-14.461-5.5761-21.544-2.1716-10.889 1.58-17.662 6.3365-27.374-2.5944 12.583 3.0648 24.1 8.3641 31.936 12.681 22.457-6.5672 36.128-4.0553 51.199 0.30411-5.6431 2.6445-9.3597 5.5761-13.94-0.90205 2.7683-0.62631 4.8898 0 7.6038 2.1887-13.919 10.127-19.402 17.742-28.387-12.518 37.067 13.268 59.838 12.419 23.572 6.6527 10.016 11.332 20.473 10.899 32.696l-30.669-9.8849-19.263 26.613-26.36-0.76037z" fill="#2c5aa0"/> <path d="m297.05 92.882c4.1966-4.5391 7.7496-8.585 9.378-14.447 5.0661 13.235-4.1786 27.161-9.1245 40.046l2.0277 17.235-0.76038 12.166-7.3503-24.079z" fill="#afc6e9"/> <path d="m364.73 131.91 2.788-5.8296c4.0765 37.169-16.642 60.577-53.226 62.097-48.671 2.7552-69.39-26.585-51.959-59.816-4.5287 21.294 9.3046 27.706 10.138-4.3088l6.083 2.788 22.051 34.217 33.457-19.77z" fill="#afc6e9"/> <path d="m259.8 151.68c11.567 35.726 43.614 38.044 78.655 30.54 26.383-18.087 33.732-41.605 23.597-69.769-14.811 18.257-27.302-2.1639-23.597-26.064-9.2806 13.364-12.286 28.133-9.1765 45.81-4.5153-6.9356-4.912-16.074-5.768-23.168-1.7479 4.2703-2.8998 8.7421-4.195 13.164-5.9456-23.51 2.6218-25.331 2.6218-38.439-23.791 26.338-23.765 36.991-23.859 58.974-7.4346-21.364 6.476-40.054 1.0487-51.602-21.644 13.054-29.934 30.459-22.548 56.868-2.9152 13.219-9.8016 13.601-16.78 3.6859z" fill="#3771c8"/> <path d="m261.32 153.71c11.182 34.394 42.163 36.625 76.038 29.401 25.505-17.412 32.61-40.053 22.811-67.167-14.318 17.576-26.394-2.0832-22.811-25.092-8.9717 12.865-11.877 27.084-8.8711 44.102-4.365-6.6769-4.7485-15.474-5.5761-22.304-1.6898 4.111-2.8033 8.4161-4.0553 12.673-5.7478-22.633 2.5346-24.386 2.5346-37.005-22.999 25.356-22.974 35.612-23.065 56.775-7.1872-20.567 6.2605-38.56 1.0138-49.678-20.924 12.567-28.938 29.323-21.797 54.747-2.8181 12.726-9.4754 13.093-16.221 3.5484z" fill="#87aade"/> <path d="m317.84 186.41c-26.687 2.1715-33.85-16.017-35.484-21.797-5.7479-20.33 3.3483-40.213 15.968-61.337-6.7239 27.364-8.848 35.27 3.8019 57.028-1.393-24.01 1.0238-38.584 11.406-58.549-2.4494 21.582 3.4888 39.734 15.968 55.761-2.1449-14.432 5.4315-25.579 12.673-35.231-0.33428 32.033 23.893 58.608-24.332 64.125z" fill="#afc6e9"/> <path d="m310.05 186.75c-17.951-6.6887-23.38-16.838-20.431-25.808 6.8133 4.7358 13.924 8.5791 21.507 11.829-9.768-13.052-8.6228-28.686-3.226-43.73-1.0402 9.2966 3.5099 17.417 8.2442 22.94 9.7343 8.3997 11.328 11.984 12.187 24.016 8.1914-10.983 3.5462-25.446 6.452-34.052 11.53 35.025-0.22891 45.14-24.733 44.806z" fill="#d7e3f4"/> <path d="m297.94 74.76c0.64924 6.195-1.7241 10.752-5.9563 14.574-0.90245-4.1732 0.40789-8.8931-0.76037-13.307 1.4315-2.8761 4.3283-1.5655 6.7167-1.2673z" fill="#d7e3f4"/> <path d="m297.43 74.126c-0.49422 3.9497-0.1014 6.9617-4.1821 7.3503-0.21796-2.1031-0.67316-4.1532-1.1406-6.2097 2.0301-1.84 2.8279-1.7076 5.3226-1.1406z" fill="#87aade"/> <path d="m291.22 76.027c-2.2025-8.6455 0.35659-13.124 3.295-19.009 0 0-0.0207 3.7836 0.63365 5.7028 1.4617 4.2872 3.6752 5.7979 2.788 14.067-1.7032-2.7-3.938-1.5002-6.7167-0.76038z" fill="#2c5aa0"/> <path d="m292.87 74.886-0.12673-11.659c2.5449 3.8705 4.3268 6.9827 4.1821 11.532-1.5901-0.72653-2.5263-0.63779-4.0553 0.12673z" fill="#3771c8"/> <g transform="matrix(-.84283 -.12741 -.10598 .84308 578.31 7.792)"> <path d="m297.94 74.76c0.64924 6.195-1.7241 10.752-5.9563 14.574-0.90245-4.1732 0.40789-8.8931-0.76037-13.307 1.4315-2.8761 4.3283-1.5655 6.7167-1.2673z" fill="#d7e3f4"/> <path d="m297.43 74.126c-0.49422 3.9497-0.1014 6.9617-4.1821 7.3503-0.21796-2.1031-0.67316-4.1532-1.1406-6.2097 2.0301-1.84 2.8279-1.7076 5.3226-1.1406z" fill="#87aade"/> <path d="m291.22 76.027c-2.2025-8.6455 0.35659-13.124 3.295-19.009 0 0-0.0207 3.7836 0.63365 5.7028 1.4617 4.2872 3.6752 5.7979 2.788 14.067-1.7032-2.7-3.938-1.5002-6.7167-0.76038z" fill="#2c5aa0"/> <path d="m292.87 74.886-0.12673-11.659c2.5449 3.8705 4.3268 6.9827 4.1821 11.532-1.5901-0.72653-2.5263-0.63779-4.0553 0.12673z" fill="#3771c8"/> </g> </g> <g transform="matrix(.40301 0 0 .44745 45.64 348.75)"> <path d="m272.47 125.07c1.7665-18.41 12.946-26.529 27.12-38.019 5.209-16.6 5.015-24.759 1.5208-40.046 8.6759 17.627 12.307 30.401 8.6176 46.636 2.3125-5.8433 5.2541-11.849 5.5761-18.249-0.65863-7.4693-3.3094-14.461-5.5761-21.544-2.1716-10.889 1.58-17.662 6.3365-27.374-2.5944 12.583 3.0648 24.1 8.3641 31.936 12.681 22.457-6.5672 36.128-4.0553 51.199 0.30411-5.6431 2.6445-9.3597 5.5761-13.94-0.90205 2.7683-0.62631 4.8898 0 7.6038 2.1887-13.919 10.127-19.402 17.742-28.387-12.518 37.067 13.268 59.838 12.419 23.572 6.6527 10.016 11.332 20.473 10.899 32.696l-30.669-9.8849-19.263 26.613-26.36-0.76037z" fill="#2c5aa0"/> <path d="m297.05 92.882c4.1966-4.5391 7.7496-8.585 9.378-14.447 5.0661 13.235-4.1786 27.161-9.1245 40.046l2.0277 17.235-0.76038 12.166-7.3503-24.079z" fill="#afc6e9"/> <path d="m364.73 131.91 2.788-5.8296c4.0765 37.169-16.642 60.577-53.226 62.097-48.671 2.7552-69.39-26.585-51.959-59.816-4.5287 21.294 9.3046 27.706 10.138-4.3088l6.083 2.788 22.051 34.217 33.457-19.77z" fill="#afc6e9"/> <path d="m259.8 151.68c11.567 35.726 43.614 38.044 78.655 30.54 26.383-18.087 33.732-41.605 23.597-69.769-14.811 18.257-27.302-2.1639-23.597-26.064-9.2806 13.364-12.286 28.133-9.1765 45.81-4.5153-6.9356-4.912-16.074-5.768-23.168-1.7479 4.2703-2.8998 8.7421-4.195 13.164-5.9456-23.51 2.6218-25.331 2.6218-38.439-23.791 26.338-23.765 36.991-23.859 58.974-7.4346-21.364 6.476-40.054 1.0487-51.602-21.644 13.054-29.934 30.459-22.548 56.868-2.9152 13.219-9.8016 13.601-16.78 3.6859z" fill="#3771c8"/> <path d="m261.32 153.71c11.182 34.394 42.163 36.625 76.038 29.401 25.505-17.412 32.61-40.053 22.811-67.167-14.318 17.576-26.394-2.0832-22.811-25.092-8.9717 12.865-11.877 27.084-8.8711 44.102-4.365-6.6769-4.7485-15.474-5.5761-22.304-1.6898 4.111-2.8033 8.4161-4.0553 12.673-5.7478-22.633 2.5346-24.386 2.5346-37.005-22.999 25.356-22.974 35.612-23.065 56.775-7.1872-20.567 6.2605-38.56 1.0138-49.678-20.924 12.567-28.938 29.323-21.797 54.747-2.8181 12.726-9.4754 13.093-16.221 3.5484z" fill="#87aade"/> <path d="m317.84 186.41c-26.687 2.1715-33.85-16.017-35.484-21.797-5.7479-20.33 3.3483-40.213 15.968-61.337-6.7239 27.364-8.848 35.27 3.8019 57.028-1.393-24.01 1.0238-38.584 11.406-58.549-2.4494 21.582 3.4888 39.734 15.968 55.761-2.1449-14.432 5.4315-25.579 12.673-35.231-0.33428 32.033 23.893 58.608-24.332 64.125z" fill="#afc6e9"/> <path d="m310.05 186.75c-17.951-6.6887-23.38-16.838-20.431-25.808 6.8133 4.7358 13.924 8.5791 21.507 11.829-9.768-13.052-8.6228-28.686-3.226-43.73-1.0402 9.2966 3.5099 17.417 8.2442 22.94 9.7343 8.3997 11.328 11.984 12.187 24.016 8.1914-10.983 3.5462-25.446 6.452-34.052 11.53 35.025-0.22891 45.14-24.733 44.806z" fill="#d7e3f4"/> <path d="m297.94 74.76c0.64924 6.195-1.7241 10.752-5.9563 14.574-0.90245-4.1732 0.40789-8.8931-0.76037-13.307 1.4315-2.8761 4.3283-1.5655 6.7167-1.2673z" fill="#d7e3f4"/> <path d="m297.43 74.126c-0.49422 3.9497-0.1014 6.9617-4.1821 7.3503-0.21796-2.1031-0.67316-4.1532-1.1406-6.2097 2.0301-1.84 2.8279-1.7076 5.3226-1.1406z" fill="#87aade"/> <path d="m291.22 76.027c-2.2025-8.6455 0.35659-13.124 3.295-19.009 0 0-0.0207 3.7836 0.63365 5.7028 1.4617 4.2872 3.6752 5.7979 2.788 14.067-1.7032-2.7-3.938-1.5002-6.7167-0.76038z" fill="#2c5aa0"/> <path d="m292.87 74.886-0.12673-11.659c2.5449 3.8705 4.3268 6.9827 4.1821 11.532-1.5901-0.72653-2.5263-0.63779-4.0553 0.12673z" fill="#3771c8"/> <g transform="matrix(-.84283 -.12741 -.10598 .84308 578.31 7.792)"> <path d="m297.94 74.76c0.64924 6.195-1.7241 10.752-5.9563 14.574-0.90245-4.1732 0.40789-8.8931-0.76037-13.307 1.4315-2.8761 4.3283-1.5655 6.7167-1.2673z" fill="#d7e3f4"/> <path d="m297.43 74.126c-0.49422 3.9497-0.1014 6.9617-4.1821 7.3503-0.21796-2.1031-0.67316-4.1532-1.1406-6.2097 2.0301-1.84 2.8279-1.7076 5.3226-1.1406z" fill="#87aade"/> <path d="m291.22 76.027c-2.2025-8.6455 0.35659-13.124 3.295-19.009 0 0-0.0207 3.7836 0.63365 5.7028 1.4617 4.2872 3.6752 5.7979 2.788 14.067-1.7032-2.7-3.938-1.5002-6.7167-0.76038z" fill="#2c5aa0"/> <path d="m292.87 74.886-0.12673-11.659c2.5449 3.8705 4.3268 6.9827 4.1821 11.532-1.5901-0.72653-2.5263-0.63779-4.0553 0.12673z" fill="#3771c8"/> </g> </g> <path d="m339.41 186.48 1.4985 2.997 2.6224 2.0604 3.3716 1.3112 3.9336-0.93656 1.1239-2.4351v-2.0604l-0.18731-2.4351-2.8097-3.9336z" fill="#924f29"/> <path d="m345.59 183.67c1.4699 4.1972 3.2406 7.8503 6.1813 2.6224l-0.56194-2.4351-2.2478-2.6224" fill="#cd907a"/> <path d="m339.6 187.23c3.1081 4.5501 6.7009 6.7697 11.239 4.8701 2.7001-3.8772-0.11647-8.6694-1.6858-11.801" fill="none" stroke="#214478" stroke-linejoin="miter" stroke-miterlimit="4" stroke-width="3"/> <path d="m384.93 119.61-5.4321 11.801c5.3627 0.49369 9.6129 0.7557 13.674-2.4351-0.21472-5.356-3.9536-6.7171-8.2418-9.3656z" fill="#8a4d23"/> <path d="m383.62 123.73c3.7352 3.099 8.075 5.7863 8.0545 0.93657-2.1716-2.5189-3.9427-3.8361-5.6194-4.8702z" fill="#d3a575"/> <path d="m379.87 131.04c4.4862 0.19601 10.56 1.3441 13.299-2.2478-0.43267-5.2724-4.2345-7.2298-7.3052-9.1783" fill="none" stroke="#214478" stroke-linejoin="miter" stroke-miterlimit="4" stroke-width="3"/> <path d="m421.08 24.642 4.6828 5.994 6.9306-2.0604 3.559-2.0604 1.3112-3.5589-1.8731-2.2478-3.1843-1.3112z" fill="#a15a3f"/> <path d="m431.94 19.397c4.7231 5.7527-5.2332 5.3765-9.7403 6.1813l-4.4955-6.1813" fill="#c4a86f"/> <path d="m267.86 90.014-1.6858 4.4955-1.1239 9.3657 3.1843 2.0604 6.7433-0.93657 2.0604-2.997 1.6858-5.4321-2.6224-0.18731z" fill="#9a6b32"/> <path d="m267.48 90.951c4.4394 4.7133 5.1752 10.55 10.864 5.6194-0.9074-5.1018-4.8732-8.1408-8.8037-8.991z" fill="#f1cba4"/> <path d="m265.24 103.69c0.51828-6.2864 0.22771-11.387 4.4955-15.922 5.4216 0.23564 6.9644 4.2111 8.6164 8.6164l-1.3112 5.2448-2.997 3.1843-4.8701 0.93657z" fill="none" stroke="#214478" stroke-linejoin="miter" stroke-miterlimit="4" stroke-width="3"/> <path d="m256.42 179.34 5.0331 10.331 2.9139 1.5894s1.0596-10.596 1.8543-11.921c0.7947-1.3245 9.5364-11.656 10.596-12.715s10.331-10.066 10.331-10.066l0.2649-14.04-9.2715-17.483-10.066 13.51-0.5298 4.2384-1.8543 6.8874-4.2384 4.5033-4.2384 25.166z" fill="#5f8dd3"/> <path d="m392.05 64.636-39.735 3.7086-59.603 27.285-4.2384 14.305-3.7086 45.563-12.715 17.219-6.8874 17.219 3.7086 7.4172 12.45 18.278c14.386-21.263 28.189-29.925 50.596-32.848 6.3166 6.833 11.984 5.0636 17.219 0.2649 1.0533-4.7651-1.3823-7.7857-3.1788-11.126 5.0391-18.235 11.401-29.153 21.987-43.709 16.787 11.35 23.287-8.1121 12.45-19.338 0.18493-18.773 4.5133-27.505 11.656-44.238z" fill="#87aade"/> <path d="m267.81 137.75 2.1192 4.7682 5.0331 3.4437 2.9139-0.7947-0.7947-6.0927-1.8543-5.5629 0.2649-4.2384 2.9139-0.5298 18.278 14.57 27.285 23.311 11.921 16.159s2.9139-4.2384 2.9139-5.298v-5.8278l-8.2119-14.57-23.841-19.868-15.364-13.245 1.0596-5.5629 10.331-3.7086 16.159 1.8543 16.954-1.8543 17.483 2.3841 15.364 3.4437 8.2119 1.3245-2.1192-5.8278-10.861-4.2384-19.868-2.9139-31.523-2.649-18.013 0.2649s-2.3841 0-2.3841-1.8543 6.0927-8.7417 6.0927-8.7417l12.715-9.8013 0.2649-7.947-20.927 1.5894-9.0066 11.391-15.099 30.728z" fill="#acf"/> <path d="m258.01 181.46c0.0861-8.1832 0.86596-10.105 5.8278-15.894l5.0331-4.7682c-0.10006-12.9-8.0278-6.5672-13.775-1.0596l-5.298 6.8874 3.7086 5.5629z" fill="#87aade"/> <path d="m262.78 189.67c0.90357-31.22 34.664-22.178 14.834-61.722 19.805 12.159 49.679 31.319 57.748 53.51-34.554-33.033-40.795-24.981-54.305-11.656-9.2305 9.1052-12.439 4.0078-11.656 28.344z" fill="#2c5aa0"/> <path d="m345.96 173.25c0.29441 2.7861 0.15344 4.538-1.3245 6.755 0.89736 9.544 11.398-0.60542 1.3245-6.755z" fill="#d5e5ff"/> <path d="m291.27 125.04c-3.9007-3.7995-1.7251-9.1083 1.4985-9.7403 22.812-4.4723 54.799-1.5768 78.671 10.115-4.4397 4.6727-8.2179 9.9092-12.175 14.985-13.959-13.245-40.227-22.318-56.943-22.852-5.7499 0.58518-10.031 2.9786-11.051 7.4925z" fill="#2c5aa0"/> <path d="m380.81 109.87c-0.57643 5.2213-0.55532 12.886 5.6194 11.051 0.0584-5.1545-2.1658-7.5979-5.6194-11.051z" fill="#d5e5ff"/> <path d="m285.84 85.706 0.74925 5.8067 2.8097 2.4351 4.4955-1.4985c41.418-26.273 76.676-61.885 121-61.064 2.5254 5.1417 3.1528 10.031 8.2418 4.8701 5.1719-8.0386-2.1325-11.467-7.6798-14.985l-9.1783 2.0604c-51.828 12.424-83.069 25.112-120.44 62.375z" fill="#5f8dd3"/> <path d="m417.85 32.048c-31.065-5.9398-87.424 28.542-109.91 52.722-2.1064 2.2003-3.9045 2.8707-6.7433 3.3716-4.7283 3.5893-8.1785 16.278 0.18731 15.734-4.7e-4 -5.333 2.4672-8.0478 5.6194-11.988 24.41-18.812 54.699-24.488 84.104-25.662 6.1977-11.086 16.196-20.64 24.163-28.284 2.7291-0.13762 2.8261-3.1506 2.5767-5.8933z" fill="#2c5aa0"/> <path d="m418.08 29.887c3.2045 0.4873 4.2592 0.29937 5.4321-2.8097-2.3945-3.6385-5.3712-6.6824-8.4291-9.7403-5.1613-0.5226-7.582 0.68307-11.239 3.9336 7.4874 0.27495 9.5968 3.2746 14.236 8.6164z" fill="#2c5aa0"/> <path d="m283.97 88.328c3.7026 17.559-7.4658 38.443-17.42 32.031 1.3914-5.4916-0.55396-11.686-1.3112-16.109 11.04 3.0586 12.807-3.2644 14.985-11.613l1.1239-3.1843z" fill="#2c5aa0"/> <path d="m283.03 89.078c4.0486 8.9641-3.1136 23.381-9.7403 22.29-2.538-0.41765-1.1002-4.7065 1.8731-7.6798l4.6828-5.994 0.74925-5.6194 0.93657-2.8097z" fill="#5f8dd3"/> <path d="m282.47 89.827c2.257 3.7024 0.7652 15.802-6.1813 13.487 2.0908-4.5185 2.5403-8.0176 0.37463-11.988 1.9589-1.2046 3.6088-1.4985 5.8067-1.4985z" fill="#d7e3f4"/> <path d="m411.15 28.576c-25.494 1.753-50.37 14.191-69.868 24.163-4.2464 0.13769-7.4504 0.0096-7.6798-4.1209 24.71-14.541 46.607-20.632 71.928-27.722 6.1483 0.80592 7.3995 2.5694 5.6194 7.6798z" fill="#87aade"/> <path d="m404.97 20.334c8.8961-0.44828 8.4705 1.4624 13.861 9.7403-6.962-3.1977-4.4168-8.6988-16.296-8.2418z" fill="#162d50"/> <path d="m263.05 55.099-19.338 30.464-16.689 47.417 10.861 2.3841 11.656-0.79471 6.8874-17.483 5.8278-13.51-1.5894-1.3245-0.2649-23.576 1.8543-14.04z" fill="#2c5aa0"/> <path d="m262.25 103.05-7.1523 17.748 3.7086 1.8543 7.4172-3.9735-2.1192-14.57z" fill="#9a6b32"/> <path d="m238.41 103.84c5.8509 2.1959 23.046-0.48968 23.046 7.1523-6.0686 5.2619-19.073 1.4912-23.841-1.0596z" fill="#5f8dd3"/> <path d="m271.79 10.066 13.245-0.5298 7.1523 2.1192-16.159 7.1523z" fill="#d5aa7e"/> <path d="m275.76 16.689 15.099-5.5629 1.5894 0.7947-2.3841 5.0331-12.45 6.3576z" fill="#a26836"/> <path d="m272.32 10.596c6.6318-0.85299 15.551-2.6406 20.132 1.3245-0.76487 6.0445-9.7848 8.9956-14.57 12.185z" fill="none" stroke="#214478" stroke-linejoin="miter" stroke-miterlimit="4" stroke-width="3"/> <path d="m185.7 86.887 11.656-18.278 14.834-20.662 62.252-33.642 3.4437 8.7417v3.9735l-8.2119 9.0066-44.503 21.722-25.166 32.848z" fill="#5f8dd3"/> <path d="m274.7 16.159c-25.059 13.206-76.067 49.069-60.397 30.464l14.834-13.775 15.099-10.861 18.013-7.1523 3.1788-0.5298 2.649-2.9139 3.7086-0.7947z" fill="#87aade"/> <path d="m267.55 13.245c4.7677 2.6116 5.1825 4.5301 6.0927 9.5364-2.1513-4.0723-4.3415-6.0445-8.2119-8.2119z" fill="#162d50"/> <path d="m261.99 30.464c-25.196 7.2087-45.476 24.007-55.894 48.742l20.397-24.636 12.45-10.066 14.305-8.2119z" fill="#162d50"/> <path d="m275.5 28.344c-31.673 3.5163-61.849 31.324-76.821 61.457 0 0 29.934-31.523 30.993-32.053 14.135-8.2116 25.876-17.21 41.589-21.457z" fill="#2c5aa0"/> <path d="m185.96 87.947c20.628-36.314 41.051-64.507 80.53-74.172 0.825-3.4048 2.6403-2.8246 5.8278-3.1788 2.4289 5.2883 9.3861 15.084 3.2196 18.167-8.0991 15.044-31.077 22.634-46.134 31.105l-24.901 32.848z" fill="none" stroke="#214478" stroke-linejoin="miter" stroke-miterlimit="4" stroke-width="3"/> <path d="m256.16 63.311c3.4081 11.914-6.3576 43.563-14.04 23.311" fill="#87aade"/> <path d="m264.11 55.364c-4.2669 17.07-4.5603 30.287-3.1788 47.417l2.8818 1.8088c4.0127 13.821 2.1741 20.556-9.2394 16.734-1.7016 9.1279-12.778 19.373-15.301 39.083l0.46646-0.4073-16.159-31.258 12.185-40z" fill="none" stroke="#214478" stroke-linejoin="miter" stroke-miterlimit="4" stroke-width="3"/> <path d="m249.88 166.44c8.8216-20.782 23.586-3.9468 16.109-45.33 3.507-2.3644-0.14473-13.001-0.74925-17.233 10.051 5.9199 16.809-5.8599 11.239-12.363 1.7208-1.2967 3.5809-1.7381 5.6194-2.2478 41.204-42.445 71.385-53.055 121.75-68.182 2.8445-3.7975 7.1882-4.0363 10.864-3.7463 4.8009 3.826 7.9267 8.2644 10.864 13.487-1.6169 6.7177-4.446 7.4925-10.49 7.4925-21.417 18.867-34.619 39.671-35.215 71.179 14.705 7.6668 1.4852 30.967-11.613 19.106-13.488 15.229-17.628 27.312-22.478 44.58 13.296 5.514-4.712 22.76-13.861 9.3656-19.354 3.098-38.177 11.497-50.684 34.931-4.618-10.482-11.954-19.744-19.745-27.813l-6.7433-15.734z" fill="none" stroke="#214478" stroke-linejoin="miter" stroke-miterlimit="4" stroke-width="3"/> <path d="m289.77 107.06c24.496-0.04 50.462 0.14016 84.291 7.4925-30.616-10.778-64.561-10.336-84.291-7.4925z" fill="#162d50"/> <path d="m295.21 128.23c12.901 10.876 22.573 19.451 35.028 30.157 1.0829-6.3292-28.232-26.141-33.154-29.97z" fill="#162d50"/> <path d="m417.33 19.023c7.8385 0.56582 15.263-1.8614 20.23 3.9336 0.22204 5.544-7.8234 5.9799-12.175 7.6798z" fill="none" stroke="#214478" stroke-linejoin="miter" stroke-miterlimit="4" stroke-width="3"/> <path d="m308.81 269.01 2.7342 0.1519 2.2785 1.0633 1.3671 2.1266-1.0633 4.7089z" fill="#f2e4b0"/> <path d="m308.51 269.01c6.3039-0.34901 8.0062 2.1696 5.3165 8.5063z" fill="none" stroke="#214478" stroke-linejoin="miter" stroke-miterlimit="4" stroke-width="3"/> <path d="m295.75 246.68 2.2785-0.4557 3.1899 0.1519 4.1013 0.7595 2.2785 0.75949-2.5823 4.557-4.8608 2.7342z" fill="#f2e4b0"/> <path d="m306.76 247.14c-1.3452 3.4745-4.1364 5.5937-6.8742 6.8742l3.4371 7.7334c2.5718-4.3957 7.8835-12.53 3.4371-14.608z" fill="#9d5e36"/> <path d="m295.8 246.71c4.4574-0.7914 8.225-0.29557 12.459 0.85927 1.369 4.3716-2.7004 9.32-4.5112 13.319l-4.0815-4.9408z" fill="none" stroke="#214478" stroke-linejoin="miter" stroke-miterlimit="4" stroke-width="3"/> <path d="m297.09 221.57-4.726 3.4371h-8.3779l-3.6519-8.3779 5.3704 0.85927 4.9408 0.85927 3.6519 1.5037z" fill="#f2e4b0"/> <path d="m296.2 221.16c-3.4961 3.6899-9.1192 2.5922-12.76 1.8228l6.6836 14.278c2.8037-3.9265 11.348-12.554 6.076-16.101z" fill="#a15f3c"/> <path d="m281.01 216.91c6.5174-6e-3 11.381 1.5311 16.709 4.8608 0.0922 6.1218-3.0127 10.238-6.6835 15.797l-6.9873-10.633z" fill="none" stroke="#214478" stroke-linejoin="miter" stroke-miterlimit="4" stroke-width="3"/> <path d="m185.62 239.7 12.456-5.1646 5.4684 11.544-6.9873 20.051-10.633-1.2152 1.2152-9.7215-1.8228-3.6456 1.8228-6.3798z" fill="#2c5aa0"/> <path d="m183.19 262.18c2.4299-5.1525 19.783-4.8967 10.937 3.9494" fill="#162d50"/> <path d="m374.89 369.72 2.1266 11.241c0.19163 32.352-11.043 47.483-29.468 61.063-17.585 9.0884-21.338 18.417-42.117 17.44-46.503 5.2555-89.876-3.4139-118.41-16.602 0 0-0.63027-2.1813 0.58492-3.3965 53.743 2.1654 126.83 11.726 165.71-22.656l17.62-28.861z" fill="#2c5aa0"/> <path d="m279.26 212.55-27.497 71.534 84.638 94.305c-15.382 34.905-20.381 39.322-43.608 47.045-29.929 9.6185-84.024 13.764-115.14 10.311 13.799 11.731 190.41 51.3 197.56-53.145 4.43-19.455-2.2428-28.269-9.3782-42.019l0.85927-2.7926-10.956-11.6 0.42963-3.8667c-44.322-29.153-55.042-62.244-76.905-109.77z" fill="#87aade"/> <path d="m355.9 398.28c6.4699-3.7004 8.61-0.45748 2.7342 3.9494" fill="#f1e3d4"/> <path d="m345.11 374.28c2.6636-3.762 4.5501 2.7704 0.75949 1.8228" fill="#fff"/> <path d="m363.34 368.51c2.2646 0.7433 4.4914-0.75949 6.2278-0.75949 1.9032 0-0.29874 6.5316-0.91139 6.5316-1.8856 0-2.3214-0.34673-3.7975-1.8228-1.2273-1.2273-1.3671-0.16865-1.3671-1.6709" fill="#fff"/> <path d="m361.52 347.24c6.9562 0.58506 6.5388 12.563 0.1519 2.4304" fill="#fff"/> <path d="m358.94 354.38c-1.7987-0.8488-4.8556-0.31405-5.7722 1.519-3.6853 7.3705 6.5316 6.6659 6.5316 0.91139" fill="#d5e5ff"/> <path d="m353.01 361.22c-0.19672-2.6483 1.4614-1.3671 2.8861-1.3671 1.4424 0 1.1242-1.6709 2.7342-1.6709h1.2152c-0.0637 0-1.6189 6.2278-4.2532 6.2278" fill="#fff"/> <path d="m353.62 335.54c-1.1162 2.9476-15.949 2.7796-15.949 1.6709 0-0.0653 0.75949 2.0854 0.75949 3.9494 0 1.8811 2.7426 6.2363 3.6456 7.1392 3.4502 3.4502 13.823-2.7996 13.823-8.0506" fill="#d5e5ff"/> <path d="m354.68 338.13c0.14901 5.2124-10.942 5.3327-11.392 6.6836-1.5814 4.7441 8.5402 5.8621 12 4.7089 1.5632-0.52105 1.3584-7.0133 1.0633-7.8987-0.46715-1.4015-0.23747-2.777-1.6709-3.4937z" fill="#fff"/> <path d="m323.7 342.68c2.4709-0.36287 6.3941-3.6384 8.8101-2.4304 1.6159 0.80794 1.1656 11.355-7.2911 5.0126" fill="#cd619a"/> <path d="m325.06 344.81c14.451-4.1087 7.3963 9.8618 0 0z" fill="#f1e3d4"/> <path d="m350.58 318.38c-0.95027 1.305-2.1929 2.717-3.7975 3.038-1.3522 0.27044-6.585-0.0985-7.443 0.7595-2.4371 2.4371 12.754 6.4586 15.949 4.8608 0.74901-0.3745 0.56896-4.3278 0.91139-5.0127" fill="#fff"/> <path d="m332.54 318.56c-1.7351-1.0877-2.8492 1.2889-3.6519 1.2889-6.6395 2.0739-6.6718 1.4609-5.0482 6.0149 2.4239 1.2119 8.1045-1.66 9.452-3.0074" fill="#d5e5ff"/> <path d="m333.18 322.54c-15.303 2.9212-10.212 4.6808-0.21482 4.5112" fill="#fff"/> <path d="m323.3 306.86c13.411-3.9325 7.9062 11.831 0.64446 2.1482" fill="#fff"/> <path d="m309.12 315.88c15.851 14.859 62.888 50.23 10.096 98.171l5.3704-6.2297 2.5778-7.089 2.1482-9.0223-0.64445-8.1631-2.5778-7.5186-4.5112-6.8742-5.1556-4.2964-4.0815-2.1482z" fill="#5f8dd3"/> <path d="m334.9 316.95c8.0301 11.672 6.3898 9.2418 20.837 9.6668-14.218 4.4979-16.933-0.89416-20.837-9.6668z" fill="#162d50" stroke="#162d50" stroke-linejoin="miter" stroke-miterlimit="4"/> <path d="m305.26 300.84c4.8605 12.804 12.59 32.307 9.2371 62.727l-4.726-2.363-8.5927-3.0074s4.5112-20.622 4.5112-21.697-1.5037-19.119-1.5037-20.193c0-1.0741 1.0741-15.467 1.0741-15.467z" fill="#3771c8"/> <path d="m301.39 285.81c4.8728 38.607-23.616 65.529-43.608 96.453 6.613 4.9518 11.742 4.9746 19.119 3.0074l14.178-9.2371c19.847-15.502 20.355-59.088 10.311-90.223z" fill="#2c5aa0"/> <path d="m283.77 296.33c2.4079-0.23098 3.202 1.5816 5.1556 2.363 9.3885 3.7554 13.533 12.286 13.533 23.63 0 2.1184 0.32732 5.0943-0.85927 6.8742-7.4247 11.137-13.597-0.31882-15.252-8.5927" fill="#5f8dd3"/> <path d="m293.87 335.21c-0.62091 11.12-4.5743 21.252-7.9482 9.2371-2.3574-4.7148 2.4929-30.844 5.5852-18.474" fill="#5f8dd3"/> <path d="m276.68 368.94c-7.0199 25.202-22.123 15.671-25.993-5.1556l0.64445-6.2297-4.2964-34.156 34.586 6.4445z" fill="#2c5aa0"/> <path d="m288.5 309.44c0.7961-0.1213 1.5081 0.10959 2.1482 0.42963 5.5765 2.7882 4.9408 6.9089 4.9408 12.674 0 1.3807-0.87767 9.0039-1.9334 7.9482-1.0601-1.0601-1.9468-4.7395-4.726-7.5186" fill="#2c5aa0"/> <path d="m292.1 265.52c-7.103 1.9428-11.767 5.219-12.911 11.089-9.2874 3.3209-17.953 6.4424-18.076-2.5823 1.8339-12.773 13.965-17.79 21.722-15.494" fill="#acf"/> <path d="m250.94 286.78-0.3038 3.4937 25.975 18.835-1.6709 12 5.9241 10.025c-0.37397 13.641-8.8707 41.365-2.4304 42.835 8.0275-0.34292 16.516-63.1 7.2911-75.494-9.393-16.196-26.345-21.699-34.785-11.696z" fill="#87aade"/> <path d="m279.65 312.61-1.2152 8.0506c4.9808 14.787 7.0012 7.6972-1.6709 36.152 0.93226-5.8649 1.6662-19.191 0-23.241-7.3765-5.6152-13.848 1.6787-27.797-7.2911l18.532-17.62 9.8734 0.7595z" fill="#162d50"/> <path d="m183.19 340.86 3.1899 6.8354 6.3797 6.8354 12.304 8.3544 9.1139 2.2785 9.1139 0.75949 8.962-0.91139 8.8101-1.8228 10.481-3.2658 1.6709-4.0253-1.9747-5.3164-3.7975-5.924-30.684 2.7342-19.899-2.7342-10.329-3.1899z" fill="#dc616b"/> <path d="m249.42 345.11c-8.8628 15.308-47.602 11.293-67.291-4.1013l-3.7975-20.962 12.304 2.2785 46.633 8.3544z" fill="#e4928c"/> <path d="m177.87 309.27 1.0633 13.063 3.4937 2.4304 12.304 6.6835 26.43 2.2785 17.316-3.7975-15.646-8.962-16.709-1.6709s-15.038-6.2278-15.646-6.6835c-0.60759-0.4557-5.3164-5.3165-5.3164-5.3165z" fill="#e4928c"/> <path d="m187.29 326.73c18.353 4.1184 32.441 7.161 48.911 1.6709 1.4581 1.8742 1.658 3.0924 1.519 5.3164-17.9 1.6776-34.978 0.57317-49.063-4.557z" fill="#d57a7b"/> <path d="m177.87 318.68c15.868 18.949 48.413 16.553 61.215 13.519-21.666 8.3398-52.822 2.5384-60.76-11.089 3e-3 -2.1222-2.6476-1.9433-0.4557-2.4304z" fill="#ac5355"/> <path d="m184.1 308.81c6.9118 14.921 20.768 16.736 36.911 14.278l-18.835-31.291-15.038-0.30379z" fill="#f5d8ba"/> <path d="m209.77 314.89c0.88211 2.9315 1.8379 3.1949 4.557 4.1013 2.0836 5.5483 3.9202 5.3263 9.4177 6.076 1.9908 3.5877 6.6263 3.0952 10.329 3.7975 10.744 25.306 9.7076 8.2504 18.38 28.405l2.4304-6.9873-1.9747-8.0506-8.2025-19.595-3.038-13.367-33.57-1.519z" fill="#a35161"/> <path d="m220.56 318.38c-4.6399-0.81169-5.3359-3.3547-5.3164-7.1392l8.5063 1.0633c-0.049 3.6551 0.89525 6.5866-3.1899 6.076z" fill="#b38a5b"/> <path d="m220.56 318.38c-4.6399-0.81169-5.3359-3.3547-5.3164-7.1392l8.5063 1.0633c-0.049 3.6551 0.89525 6.5866-3.1899 6.076z" fill="none" stroke="#9b5628" stroke-linejoin="miter" stroke-miterlimit="4"/> <path d="m213.42 310.03-0.75949 5.4684-1.8228-0.30379-2.2785-0.9114-1.8228-1.2152-1.8228-3.9494z" fill="#b38a5b"/> <path d="m204.76 309.42c2.0464 4.0268 3.7424 5.887 7.8987 6.0759l0.6076-3.6456-1.9747-0.75949z" fill="none" stroke="#9b5628" stroke-linejoin="miter" stroke-miterlimit="4"/> <path d="m194.89 295.59c1.058 4.8211-1.1614 5.1815-5.0127 5.4684 0.89828 6.9248-6.2897 10.987-11.696 10.633l1.519-16.709z" fill="#a35161"/> <path d="m201.42 253.67-2.2785 3.9494-3.7975 7.8987-2.7342 24.76 9.7215 0.30379 32.354-11.544 6.5316-12.304-34.937-12.304z" fill="#f5d8ba"/> <path d="m191.09 286.33c4.2776 0.81451 7.0432 3.7079 14.278 0.45569l-3.1899 8.3544-9.8734-1.3671z" fill="#c45b63"/> <path d="m193.67 291.19c2.5823 2.1355 5.1646 2.9779 7.7468 2.2785v2.1266l-8.2025-0.1519z" fill="#8c3b34"/> <path d="m202.33 259.9c2.1149 11.596 21.43 12.048 34.937 10.481l8.0506-8.962-10.329-1.2152z" fill="#fef3d9"/> <path d="m272.66 373.52-1.9747 4.8608-4.2532 3.3418h-4.7089l-4.2532-3.9494-2.5823-5.4684-1.2152-6.076 15.646-0.4557z" fill="#e6948c"/> <path d="m270.53 366.08c-4.741 5.29-12.155 3.6481-17.165 1.6709-0.31528-3.8885 0.4971-6.5776 1.9747-10.025 7.0991-0.66853 11.404 2.8087 15.19 8.3544z" fill="#f7bdac"/> <path d="m254.58 358.94c11.02-1.5942 14.079 9.0775 17.165 17.013 3.8302-8.3197 0.088-24.626-9.8734-25.367-3.6478 1.9785-5.898 4.9793-7.2911 8.3544z" fill="#f9d4bb"/> <path d="m245.77 325.82 0.1519 4.2532 1.3671 7.2911 1.9747 5.4684 5.6202 8.6582 1.2152-4.1013 0.7595-4.7089 0.30379-5.4684-1.6709-3.9494-5.0127-5.0127z" fill="#5f8dd3"/> <path d="m270.24 311.15 3.0074 5.4778 0.53704 3.9741-2.1482 3.7593-5.263 1.9334-7.9482 1.2889-8.0556-0.85927-4.2963-1.9334 11.17-2.2556 12.782-5.1556-1.0741-4.9408z" fill="#ffdbed"/> <path d="m240.92 318.89 2.5778 5.0482c12.361 5.9809 37.044-1.1805 25.026-13.856 0 0-10.526 9.0223-11.063 9.0223s-16.541-0.21481-16.541-0.21481z" fill="#dea09a"/> <path d="m266.7 310.94c7.6531 10.602-20.615 12.794-25.671 8.8075l-1.0741-7.089 10.419-6.8742 12.137 1.826z" fill="#9c4866"/> <path d="m240.06 313.84c0.3448 5.2522 1.7438 9.2324 5.3704 11.278 8.1795 4.6134 25.346 2.551 28.034-2.7926 2.0377-4.0515-3.1964-12.749-8.0556-15.682l-14.715-0.21481-8.8075 4.0815z" fill="none" stroke="#162d50" stroke-linejoin="miter" stroke-miterlimit="4"/> <path d="m229 292.25-2.1482 3.2223-0.64445 3.6519-0.32222 6.7667 1.2889 1.7185 32.545 2.9c4.2212 2.4829 9.0798 0.49273 13.641-0.10741 3.2252 0.67792 3.8477 1.6674 5.263 4.4038 2.3817-0.43886 3.6058-1.9723 4.4038-4.1889 0.26253-9.0202-8.3745-4.9977-12.996-9.3446-1.7528-6.0734-4.8546-8.2501-10.204-9.2371-5.0851 0.46812-6.5641-1.2406-8.8075-5.3704l-3.2222 0.32223-12.459 3.3297z" fill="#2c5aa0"/> <path d="m243.28 282.8c-8.5378 6.8367-7.0131 12.86 2.9 9.8816 4.1758-1.3919 5.5237-6.1066 7.089-9.2371" fill="#87aade"/> <path d="m254.99 283.55c-1.4736 8.8248 21.008 11.893 24.597 8.8075 1.8832-1.8832-2.0097-5.4086-3.6519-6.2297-1.8563-0.92817-4.1863-1.3419-6.5519-1.9334" fill="#d5e5ff"/> <path d="m254.67 284.3c1.4956 1.1725 19.238 3.7472 20.193 2.7926 0.30705-0.30705-3.2128-3.7562-4.1889-4.0815-2.8141-0.93804-9.3707-2.8913-12.567-1.826-0.9892 0.32974-1.6302 1.5354-2.7926 1.826" fill="#fff"/> <path d="m257.24 281.83c-1.6559 1.3026-2.6414 2.3948-4.2963 3.2223-1.5077 0.75385-11.035 0.6949-9.8816-1.6111 1.4583-2.9166 11.492-2.8468 12.889-2.1482" fill="#fff"/> <path d="m237.27 290.75c0.44096 3.6069-5.9116 9.5512-8.2705 4.8334-2.4135-4.8269 7.0196-8.5927 10.311-8.5927" fill="#87aade"/> <path d="m250.26 308.04-0.32222-3.9741 1.0741-2.7926 2.7926-2.6852 2.5778-1.0741 3.5445 0.64445 2.6852 1.9334 0.64446 1.8259-8.8075 8.1631z" fill="#f2e4b0"/> <path d="m250.69 307.18c2.6215-1.584 3.4978-0.0152 4.4038 2.363l-0.64445 2.0408c-3.4658-0.40784-4.2604-1.1463-3.7593-4.4038z" fill="#b77e46"/> <path d="m262.72 300.84c-6.0635 1.5604-8.2531 6.0841-8.8075 10.848 6.7558-0.0212 10.91-5.2857 8.8075-10.848z" fill="#a76e40"/> <path d="m237.05 306 1.0741-3.8667 3.4371-2.4704 3.9741-0.21481 4.9408 3.2222-8.8075 7.7334-3.3297-0.75186z" fill="#f2e4b0"/> <path d="m237.27 305.35c0.74619 3.9716 1.6693 4.3706 5.263 3.6519-3.2335 8.4315-6.0894 2.1962-5.263-3.6519z" fill="#bd7c5e"/> <path d="m249.3 302.02c-5.6845 2.9667-8.2845 6.2222-10.311 11.922 4.7697-0.30502 7.8997-1.8848 11.063-5.0482-0.16825-2.4131 0.92326-4.9896-0.75186-6.8742z" fill="#a36f42"/> <path d="m237.16 303.21-2.2556-1.826-3.0074-0.21482-3.1148 1.826-1.9334 3.2223-0.75186 2.9 0.42964 3.4371 3.2223 0.32222 4.0815-3.1148z" fill="#f2e4b0"/> <path d="m230.93 310.51c-1.7467 1.5657-2.6786 1.1233-4.8334 0.64445 2e-3 5.4314 5.0153 4.0931 7.9482 3.0074l3.7593-1.6111c-2.0569-3.0417-0.48657-6.7909 0.21482-9.6668-3.7501 1.2785-6.1287 5.0106-7.089 7.626z" fill="#b38a5b"/> <path d="m130.39 284.62-3.4371 11.708 22.341 58.001 9.1297-0.42963 10.848-11.063 7.626-35.123-9.7742-19.226-5.0482 4.5112-7.089 26.208-20.193-32.652z" fill="#87aade"/> <path d="m132.11 286.99c-0.15095 3.2436-1.3176 4.9871-3.2223 7.4112 6.7836 2.5814 9.1788 10.376 5.9075 15.467 6.8281 2.1558 7.3298 8.4972 6.1223 13.426l-17.185-8.2705s-4.6186-19.656-4.4038-20.193c0.21481-0.53704 7.5186-14.608 7.5186-14.608z" fill="#5f8dd3"/> <path d="m159.82 313.73c9.3006 10.976 8.7015 18.397 2.4704 29.645-10.72 4.487-7.4062-22.356-15.574-34.263l-3.9741-14.93 8.9149 13.856 5.4778 2.9z" fill="#acf"/> <path d="m141.13 320.07c4.0998 6.7752 4.2964 11.779 4.2964 19.334l-13.211 14.285-1.9334-10.419 0.53704-10.956-5.1556-10.956-3.2222-2.9 4.726-0.75186z" fill="#2c5aa0"/> <path d="m126.1 283.76c3.9663 4.8206 0.20144 10.215-3.6519 12.996l-10.526 5.1556-0.64445 7.8408 11.17 5.0482c8.0514 0.57042 15.104-0.82548 18.904 6.0149-5.6999 2.1461-11.993-0.26677-17.83-1.1815l-3.2223-1.7185-5.1556-1.7185-4.2963-1.9334-2.9-3.4371-3.5445-6.9816-3.9741-5.0482 6.1223-6.7667 13.533-7.7334z" fill="#162d50"/> <path d="m127.49 296.55 3.9741 1.9334 2.4704 3.8667 0.53704 3.5445-1.8259 4.5112-4.4038 3.9741-4.726 1.2889h-4.1889l-3.1148-0.96668-4.8334-3.2223 4.4038-1.1815 9.0223-3.4371 3.4371-3.8667-0.10741-3.8667z" fill="#e9c2b5"/> <path d="m128.57 296.98c4.4041 10.741-7.8956 15.525-16.326 15.037l-2.7926-3.2222-0.32222-3.3297 1.6111-3.8667 2.7926-2.9 3.5445-1.826 4.1889-1.1815 3.1148-0.32222z" fill="#d79a99"/> <path d="m103.76 298.16c9.6921 0.32445-4.6186 15.508-4.6186 5.263 0-1.8177-0.20273-3.1269 0.96667-4.2963" fill="#2c5aa0"/> <path d="m99.46 282.05 6.7667 0.64445-1.7185 6.6593-15.037 15.896 0.10741-6.7667v-4.1889l3.2223-3.5445 0.64445-4.5112 0.85927-3.1148 4.1889-3.2223z" fill="#87aade"/> <path d="m102.23 283.59c-0.71476 1.3952-2.3375 3.1899-3.7975 3.1899-6.1542 0 0.2857-9.123 4.2532-7.1392" fill="#5f8dd3"/> <path d="m92.506 300-2.7342 1.519 0.1519 3.9494 1.3671 4.8608 2.2785 2.4304 3.4937-3.3418-0.91139-9.5696z" fill="#f2e4b0"/> <path d="m99.494 301.97 1.3671 4.8608-4.4051 2.8861c-4.8238-1.5984-2.187-6.6086-0.75949-8.8101z" fill="#915b23"/> <path d="m95.544 289.52-1.8228 1.0633-1.2152 3.4937-0.1519 3.1899 0.75949 3.3418 4.7089-3.7975 0.75949-6.3798z" fill="#f2e4b0"/> <path d="m95.848 289.67c2.0827 4.6865 0.24778 6.8595-2.5823 10.633 2.7977 6.4425 10.894-2.7132 12-4.8608l-4.1013-6.076c-2.1891-0.60127-3.4326-0.72374-5.3165 0.3038z" fill="#b5884f"/> <path d="m98.43 289.22c0.83362 3.0208 0.0087 5.188-0.91139 8.0506 2.3075 0.84741 4.46 0.41584 6.8354 0.1519l1.2152-2.5823-2.8861-5.924c-1.4231 0.0951-2.8597-3e-3 -4.2532 0.30379z" fill="#91502c"/> <path d="m105.57 282.68-3.9494 6.8354v4.1013l5.0127-0.4557 6.2278-5.4684 1.3671-3.4937-3.6456-2.2785z" fill="#f2e4b0"/> <path d="m113.62 284.81c-2.4592 4.8876-7.4178 7.0337-11.696 8.2025l-0.1519 2.1266c5.2501 0.95224 8.7188-0.12648 13.519-2.1266 0.46089-3.134-0.52071-5.3794-1.6709-8.2025z" fill="#b38a5b"/> <path d="m99.342 301.52c0.78393 1.9233 1.0633 3.742 1.0633 5.7722l-7.2911 5.1646c-2.9193-3.5525-3.1416-6.5816-3.3418-10.785l3.1899-1.6709c1.1931 3.6346 3.7814 2.4829 6.3797 1.519z" fill="none" stroke="#9b5628" stroke-linejoin="miter" stroke-miterlimit="4"/> <path d="m102.08 289.52c-3.6744-1.5052-6.7154-0.48639-9.1139 1.519-1.7192 4.3031-0.36136 8.4702 1.2152 11.696 5.6169 0.56996 9.5545-3.69 11.544-7.2911l-4.4051-0.1519c0.0364-1.9747 0.28376-3.8692 0.75949-5.7722z" fill="none" stroke="#9b5628" stroke-linejoin="miter" stroke-miterlimit="4"/> <path d="m115.29 293.01c-4.4789 2.9081-9.52 2.5323-13.975 2.2785-0.0175-6.2822 1.5306-9.2321 5.924-13.367l8.3544 2.8861z" fill="none" stroke="#9b5628" stroke-linejoin="miter" stroke-miterlimit="4"/> <path d="m122.28 285.72c1.1284 6.744-3.3624 9.1538-7.443 8.962l2.2785-8.3544z" fill="#2c5aa0"/> <path d="m103.75 284.96c8.2018-4.9496 11.679 1.5497 10.481 9.7215 3.1845-0.66798 3.7492-4.6798 4.1013-6.9873l-7.8987-11.544-4.4051 0.3038-3.1899 3.9494z" fill="#87aade"/> <path d="m109.67 275.85-1.8228 1.8228c5.0458 2.4757 8.4714 7.3902 10.481 11.392 6.1854-4.3239 10.867-2.6168 8.8101-8.962z" fill="#5f8dd3"/> <path d="m106.33 276.3c-1.8191 3.3121-2.4178 5.3222-2.1266 8.962l-2.7342 3.1899c-0.51478-3.2822 0.12647-6.1262 0.91139-9.2658 0 0 0.7595 0.45569 1.519 0 0.75949-0.4557 2.4304-2.8861 2.4304-2.8861z" fill="#162d50"/> <path d="m105.87 276.91c4.2279-0.80538 6.8583 1.246 10.481 3.1899 7.4971 0.78892 10.433-0.0151 12.608 3.7975 5.7982 10.166 11.331 8.9587 18.38 27.342-3.1557-31.849-26.387-41.386-40.557-36z" fill="#d5e5ff"/> <path d="m168.91 305.47c7.5366 22.934-2.9507 49.837-18.684 47.848l-3.9494 12.304c12.922 1.1328 16.897-6.8744 25.063-13.063 7.2263-17.805 7.1807-31.871-2.4304-47.089z" fill="#162d50"/> <path d="m137.77 330.99c13.467 7.0214 16.324 19.458 9.5696 36.608-7.905-1.551-11.134-6.1757-15.038-12.456-1.7878-10.059-0.82097-16.964 5.4684-24.152z" fill="#162d50"/> <path d="m149.16 354.84-0.3038 7.1392-1.6709 0.4557-5.6203-0.60759-3.1899-3.038-2.7342-4.4051-1.6709-4.557-0.3038-4.8608 5.4684-1.6709 5.0127 2.8861z" fill="#dd8b83"/> <path d="m133.52 346.03c6.3482-4.8752 13.02 5.5832 15.797 10.177 0.14794-13.204-2.6523-18.583-11.392-22.329-4.1605 3.4475-4.7811 7.2634-4.4051 12.152z" fill="#f7cabd"/> <path d="m165.11 294.99c-0.12723 12.002-0.71891 16.125-6.076 25.975l-5.7722-8.2025-1.3671-3.6456 2.1266-13.063 6.3798-4.8608 4.557 1.6709z" fill="#87aade"/> <path d="m166.78 285.11c-0.59902 3.6322 0.26761 8.4369-2.1266 10.633-4.4218-4.9524-8.132 0.28149-10.937 3.4937 1.3941-17.395 9.3379-21.466 17.316-26.734z" fill="#5f8dd3"/> <path d="m168.91 297.27c3.2252 3.9276 5.0004 8.2225 6.6836 12.911-2.138-3.1155-4.9183-5.2353-7.8987-7.443l0.4557 3.038c14.539 23.626 3.5156 58.228-21.114 58.025-2.9551 1.5044-1.4024 2.7925 0.91139 3.9494 17.174-1.1368 26.048-14.148 30.532-26.278 3.0147 2.6201 6.1604 5.0842 9.2658 7.5949-8.459-15.102-9.5898-31.78-6.9874-51.038z" fill="#2c5aa0"/> <path d="m195.65 295.14c-1.5056 2.153-2.9691 1.4528-5.3924 1.2152 0 0 0-4.1772 0.22785-4.481s1.8987-3.9494 1.8987-3.9494c3.0294 1.3553 3.1481 4.7654 3.2658 7.2152z" fill="#b38a5b" stroke="#8e4738" stroke-linejoin="miter" stroke-miterlimit="4"/> <path d="m196.71 280.63c0.83238 2.3442 2.4415 5.1671 1.0633 7.1392-1.0068 1.4407-3.0662 1.1682-5.1646 1.0633l0.53164-5.8481 2.7342-2.8101z" fill="#b38a5b" stroke="#8e4738" stroke-linejoin="miter" stroke-miterlimit="4"/> <path d="m198.38 271.44 1.6709 2.2025 0.9114 3.8734-0.37975 2.3544-3.1899 0.6076-2.2785-0.4557 0.1519-4.6329z" fill="#cc8376"/> <path d="m240 286.48-5.6202 1.0633-5.7722 4.7089-2.8861 4.7089-0.75949 5.6202-0.4557 4.4051h-10.633l-8.2025-2.1266-3.4937-4.8608s-1.3671-4.557-1.3671-5.1646c0-0.6076 0.3038-4.557 0.3038-4.557l1.8228-2.8861 3.1899-3.1899 5.4684-2.8861 3.9494-1.8228 8.2025-1.0633 6.9873 0.1519 6.6835 3.038 2.8861 2.1266z" fill="#87aade"/> <path d="m225.11 303.49c-4.2788 3.8613-10.29 0.32863-10.937-3.1899-2.6066-0.376-5.1533 0.057-5.7722 3.3418 3.8798 5.8156 13.605 8.0514 17.316 4.1013z" fill="#5f8dd3"/> <path d="m224.96 294.68c-1.4483 5.181-1.0117 9.1532 0.45569 13.975l0.91139-3.1899c-0.81936-3.7397-0.36502-6.4999 0.7595-9.8734z" fill="#162d50"/> <path d="m225.57 306.23c-3.6002 5.5197-12.123 0.17838-13.671-3.3418-7.6927 2.3005-9.878-8.7954-10.481-13.671-1.0925 3.2122-0.73791 6.0099-0.30379 9.2658l0.91139 3.1899c1.2622 6.8662 2.7013 9.8734 10.025 9.2658 4.0517 2.3803 8.0976 3.5529 12.304 2.5823 1.656-2.5512 1.3744-4.4253 1.2152-7.2911z" fill="#2c5aa0"/> <path d="m210.68 282.08c12.619 1.2239 9.8723 3.8155 16.709 13.519l-3.7975 2.2785c-10.256-7.2196-14.426-4.058-12.911-15.797z" fill="#acf"/> <path d="m211.9 281.92c-0.57822 8.5981 6.4561 12.112 12.304 15.19-0.54834 6.0506-7.5127 3.8118-7.7468 0.60759-9.3719 2.0083-11.237-6.121-10.177-13.823l5.924-3.038z" fill="#d5e5ff"/> <path d="m260.57 187.42 6.0149 8.1631 9.8816 13.104 4.9408 9.0223 2.363 16.756-1.9334 13.319-5.8001 10.526c-9.7586 4.3886-16.208 14.132-17.615 22.556h-9.8816c-4.4361 0.50466-6.7622 3.1194-9.2371 5.5852l-2.5778-3.8667-4.726-3.2223-2.7926-1.0741c4.3986-6.9392 8.4244-11.683 14.393-16.756 1.0476-4.3399 0.2246-8.3563-0.42963-12.674l-1.2889-13.963-2.5778-2.7926s-0.85927-4.2964-0.64445-5.1556c0.21481-0.85926 5.5852-27.067 5.5852-27.067l8.5927-9.0223z" fill="#5f8dd3"/> <path d="m230.28 277.52c3.6689 0.95 5.1722 2.9606 7.443 5.7722-4.3613-2.4365-9.3029-4.2179-13.519-5.0127h5.1646z" fill="#162d50"/> <path d="m241.22 263.85c4.9686 0.14459 8.3568 0.19633 11.848 3.4937-3.3624 14.011-17.012 15.37-20.051 5.4684 2.6054-3.712 4.5976-6.6446 8.2025-8.962z" fill="#87aade"/> <path d="m281.32 239.54c0.20841 7.7764-5.3307 13.464-8.962 20.051 3.5262-0.69952 7.838-1.1122 11.089 0.1519 0.32293-6.9485-0.28218-14.464-2.1266-20.203z" fill="#2c5aa0"/> <path d="m243.49 214.63c8.3185 6.2568 21.006 6.1746 30.228 8.3544 15.318 49.291-32.903 48.743-31.291 12.911 0.1279-2.3786-0.6881-2.3474-2.7342-3.1899l-1.0633-1.9747z" fill="#87aade"/> <path d="m252.76 224.2c7.9121-2.3961 16.228-3.6496 17.62 3.7975-1.3356 6.9465-12.707 4.4117-19.443 4.8608-0.98665-3.3871 0.46408-5.5785 1.8228-8.6582z" fill="#5f8dd3"/> <path d="m249.27 245.85c3.8961-0.66447 4.0941 0.99913 5.3165 4.1772-0.75139 2.6874-1.3363 3.5234-3.7215 4.557-2.5803-2.3941-2.5357-5.6713-1.5949-8.7342z" fill="#d5e5ff"/> <path d="m248.73 251.85c2.2002-0.40012 2.9414 0.22368 4.0253 1.9747l-0.68354 1.2911-1.6709 0.45569-1.1392-1.443z" fill="#fff"/> <path d="m270.76 247.06c-3.7143 13.245-16.315 8.2015-17.013 1.6709l1.7468-1.3671 10.177 1.5949 1.8228 1.0633 2.0506-1.0633z" fill="#162d50"/> <path d="m270.15 233.16c-4.8154 14.775-19.985 13.852-21.797-1.8987l3.8734-1.0633z" fill="#162d50"/> <path d="m254.73 245.85c5.1217-1.5429 12.197-1.6874 13.671 3.5696-2.0532 2.0024-3.9822 2.2931-6.6835 2.7342-4.5033-0.17652-6.1545-2.7157-6.9873-6.3038z" fill="#d5e5ff"/> <path d="m255.72 248.05c4.2899-0.79776 7.4945 0.47291 10.633 2.962-3.3658 2.9509-11.11-0.0283-10.633-2.962z" fill="#fff"/> <path d="m245.09 239.09c0.087-2.6512 1.6604-4.209 3.5696-5.2405-0.0631 3.3026 0.98694 4.3746 3.038 6.7595l-2.2785 2.5063z" fill="#d5e5ff"/> <path d="m250.63 241.9-2.6582 3.4177-1.7468-0.98734-1.443-2.5823 0.1519-2.6582c2.8041-0.27505 3.9043 0.93673 5.6962 2.8101z" fill="#fff"/> <path d="m247.67 224.89c2.9318-1.9802 3.1202 4.4509-0.076 7.2152l-5.3924 2.5063-1.2911-0.98734c1.6479-5.4082 2.6546-5.9616 6.7595-8.7342z" fill="#fff"/> <path d="m250.48 230.06c7.2759-3.2225 12.636-2.967 19.656-0.53704-0.32672 8.8257-6.1914 8.4049-10.204 9.8816-6.015-0.20816-9.838-3.1676-9.452-9.3446z" fill="#d5e5ff"/> <path d="m251.66 236.18c2.1436-3.4584 15.103-7.3642 16.219 0-3.5707 3.8172-8.9739 5.1541-13.426 4.726-1.63-1.2872-2.0978-2.85-2.7926-4.726z" fill="#fff"/> <path d="m199.57 272.16c2.9738 9.6047 0.49339 8.1623-3.2223 8.0556l-1.0741-6.2297z" fill="#b38a5b" stroke="#8e4738" stroke-linejoin="miter" stroke-miterlimit="4"/> <path d="m262.43 189.48c-23.303 5.4826-13.329 23.949-23.04 43.082l-4.8701-5.2448-5.8067-16.484 9.553-50.762 12.363 7.4925 6.7433 13.112z" fill="#2c5aa0"/> <path d="m238.54 232.05 3.4437 2.9139-0.2649 4.106 0.39735 4.2384 1.1921 6.8874-0.92716 9.2715-3.7086 3.3113-10.464 1.5894-11.523-1.0596-6.755-2.9139-1.9868-5.4305 10.464-1.5894s9.1391-4.3709 9.8013-5.1656 6.6225-8.8742 6.6225-8.8742z" fill="#fdc6b5"/> <path d="m208.08 256.16c10.773 8.5244 20.555 6.994 32.583 4.7682 0 0 3.1788-0.2649 2.9139 0.2649-10.058 7.9356-41.635 8.1354-42.119-7.0199z" fill="#f29792"/> <path d="m236.03 264.77c-15.644 6.5182-35.99 1.2559-35.762-9.0066l1.457-2.1192c6.6386 14.523 21.991 12.824 34.305 11.126z" fill="#b57b6d"/> <path d="m241.99 245.7c0.0284 5.8807-2e-3 10.626-2.3841 15.629 0.81323 1.8985 1.6155 1.0221 3.3112 0.39735 2.3805-6.104 0.89666-10.251-0.92715-16.026z" fill="#ae677d"/> <path d="m239.95 233.5c-5.612 20.987-18.385 29.025-39.71 21.354 1.9218-8.1949-0.37837-14.091-3.3716-21.166l36.713-22.29c2.5504 5.6621 2.9323 12.478 3.5589 17.795z" fill="#c78086"/> <path d="m178.01 264.11 5.1656-1.5894h3.8411l4.9007 2.9139 1.9868 12.98-3.841 11.126-9.8013 1.0596s-8.8742-1.457-9.2715-1.9868-3.1788-5.5629-3.1788-5.5629 2.649-8.3444 2.7815-8.8742c0.13245-0.52981 4.7682-7.947 4.7682-7.947z" fill="#87aade"/> <path d="m182.78 269.27c4.66 1.534 8.4008 4.1528 6.6225 7.8146-4.7967-0.20257-13.362 0.44492-13.245 4.3709 6.2716-1.5748 10.855-1.1769 15.762 1.8543l1.8543 2.5166c3.8399-6.7186 1.8247-11.435-2.649-16.424z" fill="#5f8dd3"/> <path d="m179.47 264.5c-0.36821 6.2468-5.9715 15.718-10.596 18.543-0.58128 0.29064-0.92715-6.4404-0.92715-7.2848 0-3.5589 9.1209-12.459 11.523-11.258z" fill="#5f8dd3"/> <path d="m190.6 262.52 2.2516 3.8411-6.0927 0.5298-2.9139 2.1192 6.3576 1.3245 2.1192 1.457 2.1192 2.2517 2.1192 3.841 2.1192-1.7218 1.0596-2.649s0.13245-2.9139 0-3.4437c-0.13245-0.52981-1.7219-3.1788-1.7219-3.1788l-2.2516-2.3841z" fill="#5f8dd3"/> <path d="m168.96 274.33c-3.1305 8.0367-4.7089 18.204 1.6858 24.538 3.9244 1.4253 7.4739 1.6403 10.864 0.18732 10.004 1.5768 15.775-11.429 8.6164-17.045 1.3694 6.9635-4.5997 7.9178-8.991 4.6828l-5.2448 0.56194c-7.4945-0.94342-7.5135-7.1523-6.9306-12.925z" fill="#2c5aa0"/> <path d="m180.01 263.47c10.996-4.392 26.515 3.1769 16.296 14.985 0.10755 2.929-1.2212 4.8532-2.6224 7.3052-1.3284 15.243-9.2571 14.7-17.233 11.426l4.4955 2.2478c-19.553 5.6743-14.754-21.794-12.175-24.913" fill="none" stroke="#162d50" stroke-linejoin="miter" stroke-miterlimit="4"/> <path d="m196.12 235.18c11.794 6.5705 26.174 7.152 38.399-0.56194-13.9 4.4528-26.122 1.4222-32.218-2.6224z" fill="#a94d63"/> <path d="m196.25 278.13c-1.4495-6.6368-9.0382-9.787-14.183-8.6714" fill="none" stroke="#162d50" stroke-linejoin="miter" stroke-miterlimit="4"/> <path d="m193.68 285.76c-3.4235-5.5798-10.266-6.5558-15.734-5.994" fill="none" stroke="#162d50" stroke-linejoin="miter" stroke-miterlimit="4"/> <g fill="#d5e5ff"> <path d="m193.51 268.21c-1.0412 2.9224-10.66-3.1149-7.947-5.8278 4.1354-0.7014 9.0603 1.1379 7.947 5.8278z"/> <path d="m182.65 270.73c2.7804-0.34737 10.283 1.8186 8.2119 5.9603-1.0344 2.0688-6.9555-1.3281-7.4172-2.2516-0.69448-1.389-0.29644-1.7156-0.7947-3.7086z"/> </g> <path d="m176.52 281.92c0.77562-2.0016 10.097 0.45638 7.3179 2.053-7.8605 4.5162-7.3179-2.053-7.3179-2.053z" fill="#acf"/> <path d="m196.68 234.81c6.0366 10.098 5.5959 20.729-1.1239 29.408" fill="none" stroke="#162d50" stroke-linejoin="miter" stroke-miterlimit="4"/> <g fill="none" stroke="#162d50" stroke-linejoin="miter" stroke-miterlimit="4"> <path d="m233.02 211.58c5.8294 10.715-0.0686 15.698 8.991 23.601-1.072 13.056 4.1264 15.645 1.4985 26.598-6.7064 4.5864-9.947 9.821-13.861 16.671-9.9971-0.75448-34.42 3.8389-28.097 21.166 0.36795 6.5969 2.3365 13.117 10.115 11.426 4.781 3.7008 8.8602 2.7871 14.61 2.4351"/> <path d="m211.85 310.86c-0.92284-4.8386-0.24076-7.5576 2.6224-11.239"/> <path d="m202.11 300.74c0.0176-3.2496 0.57741-5.4233 2.997-7.3052"/> </g> <path d="m226.11 308.48c-1.9411-12.889 4.0608-21.851 13.272-21.973 7.4564-8.1947 14.113-5.4173 18.544-5.994 10.451-32.686 32.114-24.064 41.396-4.8701" fill="none" stroke="#162d50" stroke-linejoin="miter" stroke-miterlimit="4"/> <path d="m274.41 259.35 3.7463-6.9306" fill="none" stroke="#162d50" stroke-linejoin="miter" stroke-miterlimit="4"/> <path d="m236.95 302.61c-2.2459-5.6724-0.0776-11.685 2.57-16.032" fill="none" stroke="#162d50" stroke-linejoin="miter" stroke-miterlimit="4"/> <path d="m249.69 300.93c-2.0946-9.0363 2.4719-17.583 8.4291-19.481 19.929-1.9968 33.345 19.598 32.031 37.65 0.36803 10.707-1.8972 21.276-3.3716 31.843" fill="none" stroke="#162d50" stroke-linejoin="miter" stroke-miterlimit="4"/> <path d="m289.96 324.34c3.03 3.0774 3.4887 7.2117 4.4955 11.239" fill="none" stroke="#162d50" stroke-linejoin="miter" stroke-miterlimit="4"/> <g fill="none" stroke="#162d50" stroke-linejoin="miter" stroke-miterlimit="4"> <path d="m241.46 234.57c3.4377-0.6157 5.8272-2.0324 8.4768-4.106 1.4204-4.0933 3.1601-6.939 5.6954-10.199"/> <path d="m240.66 233.51c3.3005-7.4738 6.223-11.93 13.642-15.629"/> <path d="m250.33 229.27c-0.74363 4.6128 1.6731 8.7754 3.8411 11.921 6.0132 0.33015 10.996-1.4981 14.437-5.298 1.8974-2.0956 2.1192-8.2119 2.1192-8.2119"/> <path d="m245.96 233.25c-0.75694 4.2273-2.402 10.286 1.7219 12.053l5.1656-5.8278"/> <path d="m254.7 241.46c-2.3886 16.067 15.961 12.251 16.159 3.1788"/> <path d="m248.34 247.55c-0.0493 5.089 1.4863 11.737 5.0331 5.5629"/> <path d="m272.01 236.4c0.11287 4.7249 2.9617 7.0888 3.7593 0.16112"/> </g> <path d="m246.08 261.72c3.974-1.0367 5.8702 0.36845 9.2658 2.2785-3.694-0.14872-9.41-0.0183-9.2658-2.2785z" fill="#162d50"/> <g fill="none" stroke="#162d50" stroke-linejoin="miter" stroke-miterlimit="4"> <path d="m177.87 320.51c1.6726 7.3091 1.4914 14.496 0.75949 20.203"/> <path d="m188.81 349.97c-9.3791-15.15-11.272-35.573-8.0506-51.19"/> <path d="m151.9 309.72c5.5189 10.706 8.6596 19.408 8.2025 30.835"/> <path d="m154.03 313.52c4.801 6.1786 7.6549 13.266 10.785 20.354"/> <path d="m168.91 304.86c5.3022 6.4967 8.347 13.748 11.392 21.418"/> </g> <path d="m148.71 362.13c2.4753-10.054-1.4822-28.365-11.089-28.557-9.4809 5.7249-1.9956 33.664 11.089 28.557z" fill="none" stroke="#162d50" stroke-linejoin="miter" stroke-miterlimit="4"/> <path d="m124.27 295.15c7.073 2.4078 9.5069 3.4522 10.096 10.526-3.6688 16.003-24.905 10.516-25.456 0.53703 1.7693-8.6913 8.1109-9.8255 15.359-11.063z" fill="none" stroke="#162d50" stroke-linejoin="miter" stroke-miterlimit="4"/> <path d="m237.57 303.34c-8.1811-6.9399-13.366 4.4472-10.785 11.696 3.6983 1.2761 6.9876-0.86897 10.481-2.1266-1.1418-3.4323-0.2931-6.1374 0.3038-9.5696z" fill="none" stroke="#9b5628" stroke-linejoin="miter" stroke-miterlimit="4"/> <path d="m237.7 303.21c4.0877-5.8186 7.2598-4.1183 12.352-0.85927l-0.42964 7.1964c-3.234 3.5114-6.297 4.0619-10.741 4.4038-3.3676-3.0855-2.0599-6.7482-1.1815-10.741z" fill="none" stroke="#9b5628" stroke-linejoin="miter" stroke-miterlimit="4"/> <path d="m250.37 302.13c7.2748-9.9672 15.428-2.2951 12.996 4.726-4.0086 4.6436-8.2696 6.7253-12.996 3.4371-0.79718-2.6471-0.18391-5.4504 0-8.1631z" fill="none" stroke="#9b5628" stroke-linejoin="miter" stroke-miterlimit="4"/> <path d="m245.47 325.37c16.775 6.7571 12.206 18.688 5.924 34.785" fill="none" stroke="#162d50" stroke-linejoin="miter" stroke-miterlimit="4"/> <path d="m245.47 325.06c0.15986 11.073 3.1032 17.414 9.2658 26.43" fill="none" stroke="#162d50" stroke-linejoin="miter" stroke-miterlimit="4"/> <path d="m253.97 360c8.5805-20.44 21.813-3.0328 19.291 13.367-8.5718 20.365-22.98 0.92208-19.291-13.367z" fill="none" stroke="#162d50" stroke-linejoin="miter" stroke-miterlimit="4"/> <path d="m322.87 304.71c0.53926 7.4306 8.465 10.931 10.096 4.726" fill="none" stroke="#162d50" stroke-linejoin="miter" stroke-miterlimit="4"/> <path d="m239.76 161.19c36.581 15.769 55.203 123.92 115.6 159.57l0.16214 5.2652 10.864 12.363-0.37463 2.2478c8.8566 7.5549 20.517 60.37-0.41194 85.294-43.231 53.787-136.15 39.906-193.99 8.3429 56.128 5.5548 91.852-0.0581 135.13-13.312 23.02-7.0502 34.773-54.321-3.6623-61.593-19.764 36.01-51.698 37.889-51.698 0.74925-27.74 9.3017-47.7 7.9814-63.347-10.587-2.7539-3.2681-6.4796-4.5881-9.3304-8.5187-12.546 36.496-52.942 37.871-47.952-8.6164-5.9074-14.474-4.0526-11.717-17.607-16.858-4.1103-2.5125-5.6938-6.0096-7.8672-10.115-5.2854 0.73946-8.0715 4.1112-12.059 7.3509-3.9991-4.6673-3.345-12.64-3.6754-18.215 3.7245-3.0183 3.4193-5.6703 4.3082-10.115 1.0636-2.209 4.3258-5.5545 8.6133-5.1086 2.3307 0.24237 2.5786-3.0501 4.6859-4.257 27.327-5.562 31.198 13.753 44.91 33.917 4.2987-26.298 3.7058-26.573 16.321-34.723 4.1475-8.6963 18.19-14.929 18.19-14.929 1.0727-3.628 0.61558-4.6737-1.4985-7.4925l1.4985-6.7433-1.4985-4.4955 47.203-79.421z" fill="none" stroke="#214478" stroke-linejoin="miter" stroke-miterlimit="4" stroke-width="3"/> <path d="m332.32 317.81c2.4597 2.9279 1.1565 6.5295 0.85927 10.096-9.4779-1.8104-9.2909 1.0382-11.17-7.7334" fill="none" stroke="#162d50" stroke-linejoin="miter" stroke-miterlimit="4"/> <path d="m323.51 340.15c-1.8257 5.7811 3.7076 7.8756 7.7334 11.385 4.8948-3.837 3.114-9.9475 0.64445-12.674 1.0315 3.5916 2.7621 8.8075-1.7185 8.8075-4.2405-2.22-6.1297-3.0169-6.6593-7.5186z" fill="#162d50" stroke="#162d50" stroke-linejoin="miter" stroke-miterlimit="4"/> <path d="m336.19 335c6.9816 16.164 2.6468 13.531 19.334 14.608 1.8925-6.6498 0.98711-9.3046-2.363-14.822" fill="none" stroke="#162d50" stroke-linejoin="miter" stroke-miterlimit="4"/> <path d="m351.66 359.92 4.2963 5.5852c3.9062-5.7993 4.7752-5.7114 3.2223-11.6" fill="none" stroke="#162d50" stroke-linejoin="miter" stroke-miterlimit="4"/> <path d="m361.32 344.88c-0.4878 5.1085 1.0691 6.1027 4.726 9.2371 1.7555-1.5024 1.2889-3.2021 1.2889-5.3704" fill="none" stroke="#162d50" stroke-linejoin="miter" stroke-miterlimit="4"/> <path d="m363.04 363.35c-0.26885 9.3859-0.2601 8.3273 7.5186 12.674l0.85927-2.7926" fill="none" stroke="#162d50" stroke-linejoin="miter" stroke-miterlimit="4"/> <path d="m362.61 396.44c0.53131 3.51-1.4946 4.1874-4.0815 6.2297-1.5907-2.4474-3.3283-4.2013-3.0074-7.089" fill="#fff" stroke="#162d50" stroke-linejoin="miter" stroke-miterlimit="4"/> <path d="m344.35 372.81s0.053 5.29 4.9408 3.8667" fill="none" stroke="#162d50" stroke-linejoin="miter" stroke-miterlimit="4"/> <path d="m224.4 91.887c-7.5632-4.1637-14.69-3.7463-23.04-3.7463 21.175-25.162 34.325-37.846 60.502-49.825z" fill="#f4e0a6"/> <path d="m273.1 36.817-18.731 15.36c-7.1693 1.7086-14.499 5.6029-16.858-1.1239 14.847-4.9604 21.723-15.622 35.589-14.236z" fill="#f6e8ca"/> <path d="m228.52 94.884-4.8701-4.1209c7.5783-23.584 26.865-40.584 47.578-54.695l2.6224 0.74925 1.8731 4.1209-12.363 11.613-30.345 34.466z" fill="#e2c89a"/> <path d="m237.89 106.12c-2.5316-6.0314-6.6619-9.2028-11.613-13.112 13.666-21.478 27.167-44.424 48.327-53.946l-0.37462 4.1209c-16.547 19.001-31.426 39.049-36.339 62.937z" fill="#cb8f6a"/> <path d="m264.11 54.05c-1.8033-5.6443-9.7384-6.4929-14.985-8.2418 6.4044-3.9579 12.702-0.17964 19.106 4.4955z" fill="#bc986a"/> <path d="m252.12 69.784c-15.209-22.008-41.063 6.0018-27.722-8.991 14.986-5.2125 24.568-7.8731 31.094 5.994z" fill="#bc986a"/> <path d="m203.42 85.519c13.517-8.118 26.227-10.958 40.085 0l2.2478-4.8701c-1.5427-13.466-26.952-6.4906-37.088-3.7463z" fill="#b57649"/> <path d="m125.01 95.848-7.5949-0.3038c2.1271-8.46 6.8463-16.75 11.24-22.937l10.481 1.8228 2.5823 5.1646c-4.1352 7.908-9.4195 11.805-16.709 16.253z" fill="#d1a86b"/> <path d="m127.75 73.823c5.0357-0.18652 8.1596 2.4948 10.785 5.9241 6.1469-9.3132 14.281-19.089 21.418-27.646l4.557-4.4051c-14.386 2.7287-35.533 21.906-36.759 26.127z" fill="#fef7c8"/> <path d="m142.48 87.19-10.937 4.8608c8.421-17.355 17.35-32.213 30.987-43.747l5.924-1.2152c-7.4477 13.922-17.193 26.903-25.975 40.101z" fill="#e8d6a9"/> <path d="m141.42 87.342c6.1111-16.657 15.047-30.002 27.342-40.405l0.7595 3.7975c-8.586 9.5891-14.445 21.956-17.165 33.266z" fill="#c99469"/> <g fill="#b47545" stroke="#b7774d" stroke-linejoin="miter" stroke-miterlimit="4"> <path d="m129.87 92.354c-2.4185-3.6987-5.4356-5.4558-9.2658-4.4051 4.1722 0.03311 6.0124 1.6746 7.443 5.0127z"/> <path d="m133.82 90.38c-0.68641-4.4383-5.734-8.7828-10.177-7.2911 5.2046 1.0536 8.4618 3.3968 8.962 7.8987z"/> <path d="m140.96 87.494c-1.4634-5.8998-7.0531-12.671-13.215-11.696 7.3276 1.6242 9.8864 5.8768 11.392 12.152z"/> <path d="m146.13 85.823c-1.8405-5.711-7.1046-14.493-13.823-14.127 6.8456 3.2519 9.68 8.4393 11.848 14.582z"/> <path d="m153.11 79.595c-1.3172-6.622-3.1538-14.531-8.8101-16.861 5.7518 6.1201 6.5044 10.187 7.8987 20.203z"/> <path d="m155.85 72.759c-1.3321-5.4023-5.65-15.52-11.392-12.456 7.6799 2.4085 8.5484 8.7042 10.025 15.646z"/> <path d="m160.86 62.582-1.8228 3.3418c0.59192-5.2996-0.74413-9.424-3.7975-12.456 3.4684-0.1288 5.3278 6.562 5.6202 9.1139z"/> <path d="m164.66 56.506-2.1266 3.3418c-0.29749-3.2769-1.4309-6.2914-3.3418-8.2025 3.4494-2.1884 5.2315 2.8784 5.4684 4.8608z"/> </g> <path d="m124.16 95.477c8.7836-5.7539 18.504-8.7457 28.356-12.03 4.0302-14.905 7.5378-21.167 17.185-32.652 0 0 0.17065-3.0405-0.85927-3.8667-26.83 4.2064-46.61 28.217-51.556 48.549z" fill="none" stroke="#214478" stroke-linejoin="miter" stroke-miterlimit="4" stroke-width="3"/> <path d="m238.02 107.94c1.4792-23.765 22.471-48.565 36.519-65.304 4.1399-9.148-8.4382-6.6129-12.459-4.726-30.098 14.123-42.652 23.985-60.578 49.838 22.98 1.0378 22.565 2.4825 36.519 20.193z" fill="none" stroke="#214478" stroke-linejoin="miter" stroke-miterlimit="4" stroke-width="3"/> <path d="m196.34 89.892c-30.497-11.793-60.066-8.5953-87.645 20.622-10.513 11.632-8.0912 30.72-12.889 40.815-3.6115 8.9711-1.3991 13.118 4.2963 19.763 0.93922 15.579 7.6437 27.674 14.178 42.104l-3.0074 6.0149c-0.0613 12.185 9.2978 20.889 15.896 30.504 18.875 9.8265 29.343 8.8724 49.838-6.0149 3.0074-2.1482 36.519-16.326 36.519-16.326v-3.8667c32.592-12.534 37.393-43.791 24.489-61.867 7.0829-7.6329 21.604-22.955 12.459-28.356-9.121 2.5058-17.564 3.3573-22.771-1.7185 30.241-22.848-6.7014-51.814-31.363-41.675z" fill="#2c5aa0" stroke="#161650" stroke-linejoin="miter" stroke-miterlimit="4" stroke-width="3"/> <path d="m172.72 205.56c-6.8208 10.398-8.9545 16.212-3.1788 19.073 71.266 7.3667 47.689-55.716 68.344-78.94-7.1704-2.4029-9.6362-11.232-10.066-16.424 3.9496-8.3175 6.3576-15.893 6.3576-24.901l-9.5364-11.126-14.305 9.5364-8.4768 20.132c8.8049 14.916 9.8347 31.982 12.715 48.742-12.433 23.269-18.401 22.181-41.854 33.907z" fill="#5f8dd3"/> <g fill="#214478"> <path d="m215.41 181.42c-6.1418 19.866-31.498 26.246-50.575 26.598 3.1447-20.95-5.7676-18.479 0.37463-36.713 18.231 18.708 36.003 14.185 50.2 10.115z"/> <path d="m198.18 89.827c-6.1932 3.433-9.031 6.4213-10.115 12.925-1.5153-7.349 2.0966-10.323 7.3052-13.299z"/> <path d="m248.74 133.77s2.6765 2.762 2.649 4.5033c-0.18805 11.904-17.383 14.062-19.073 30.199 13.909-15.411 29.034-35.073 16.424-34.702z"/> <path d="m223.28 91.513c5.1955 5.4879 6.525 10.137 7.4925 17.233-15.19-12.993-26.191-10.032-36.713-7.4925 24.301 1.8494 29.492 7.0823 33.342 29.221 18.097-13.464 10.232-29.466-4.1209-38.961z"/> <path d="m205.3 200.9c3.4007-3.6372 7.6338-1.4034 8.2418 1.3112 0.36334 1.6223-1.8388 3.3802-4.1209 2.8097 6.909-6.1218-1.7502-3.8245-4.1209-4.1209z"/> <path d="m190.68 210.27c12.453-9.3632 34.577-1.6179 11.988 11.801 13.058-12.225 5.6018-18.473-9.3656-11.426z"/> </g> <path d="m238.41 161.59c-5.0659 4.1174-5.8598 1.6501-7.4172 13.775 17.096 0.72798 8.491 24.603-10.967 43.355 27.768-16.717 26.194-35.488 18.384-57.13z" fill="#162d50"/> <path d="m178.01 83.709-2.1192 20.662-11.126 27.55 12.185 2.649 34.967-10.066 15.894-30.199-9.5364-5.8278-19.603 2.649-7.947-3.7086z" fill="#87aade"/> <path d="m169.54 168.48c-15.747 17.263-46.687 23.893-60.397 17.483l-12.715-24.371 0.5298-12.185 3.7086-9.5364 0.5298-11.656 6.8874-16.424 14.305-13.775 31.258 1.0596 30.728 38.146z" fill="#87aade"/> <path d="m181.72 84.768c6.4894 21.466-3.4269 31.383-12.185 51.921l-2.1192 11.656-15.894 1.5894-20.662-12.715-9.0066-12.715-3.1788-23.311 22.252-12.715 23.311-5.8278z" fill="#acf"/> <path d="m163.71 174.68c-2.6346-23.555 1.8428-46.181 23.601-54.695 37.609-6.2211 38.372 35.019 28.846 63.312l-23.976 9.7403z" fill="#3771c8"/> <path d="m165.21 84.02c17.524 16.773 0.56009 37.295-4.4955 43.457-14.882-2.9426-16.157-8.4978-26.224-19.855-6.1614-1.0857-9.8602-2.7168-13.861-7.1179 3.926-9.621 34.333-17.808 44.581-16.484z" fill="#d5e5ff"/> <path d="m113.38 196.29c1.976 6.0109 1.7832 10.762 1.192 16.821-3.5827-5.1077-4.9174-9.5334-5.298-15.497z" fill="#162d50"/> <path d="m106.75 175.1c-1.6718-4.2495-3.0964-7.0601-6.8874-9.2715-1.2167 0.80889 3.123 32.089 10.231 36.411z" fill="#384372"/> <path d="m105.43 172.98c-5.871 10.798 1.4623 24.314 9.2715 32.583-1.8442-10.996-4.9723-25.291-9.2715-32.583z" fill="#c83771"/> <g fill="#5f8dd3"> <path d="m113.25 228.74c2.0984 1.9338 5.1685-2.2487 3.9735-3.4437-1.8158-1.8158-3.7806 0.35988-4.106 1.9868"/> <path d="m162.59 225.25c1.0994 8.4316-11.595 5.2264-6.7433 0.37462"/> </g> <g fill="#d5e5ff"> <path d="m124.59 96.336c-9.254-1.1543-16.16 4.1763-17.185 14.178z" stroke="#214478" stroke-linejoin="miter" stroke-miterlimit="4" stroke-width="3"/> <path d="m146.48 122.61c-8.798 9.287-20.691 6.2123-22.852 0.18731l1.6858-5.6194 4.1209-5.6194 15.36 2.0604z"/> <path d="m113.89 178.61c-2.1127-3.5569 5.2192-8.942 4.3082-10.302-5.8184-8.6869-9.6791 7.5758-4.3082 10.302z"/> <path d="m148.54 164.19c4.2564-1.4909 5.5692 8.0545 5.994 8.0545 4.0414 0 3.8006-10.006 0.74925-13.674"/> <path d="m118.41 157.62c9.6016-11.711 21.559-5.5849 27.815 6.0927 4.2184-9.0838 2.4974-18.382-6.6225-22.252l-10.861-1.8543-7.4172 1.8543c-4.535 5.0378-4.1447 10.902-2.9139 16.159z"/> </g> <g fill="#fdfcfc"> <path d="m144.61 95.259c6.263-0.78337 6.5884 3.194 6.7433 7.8671 3.4842-2.5249 4.769-5.9761 4.3082-9.553-3.798-2.731-8.1335-0.79783-11.051 1.6858z"/> <path d="m127.56 114.18c7.5321-3.9784 12.182-1.5137 18.731 2.6224-1.1238-5.8586-3.4674-6.7389-8.4291-9.3657-5.978-0.47255-7.8879 1.9146-10.302 6.7433z"/> <path d="m121.06 142.78c7.137-3.0745 17.507-0.11374 26.225 4.7682l-6.6225-9.0066-8.2119-5.5629z"/> </g> <g fill="#2c5aa0"> <path d="m99.868 170.6 0.5298-3.9735 3.7086 3.4437-8.4768-16.424-1.8543 3.9735v3.1788l1.5894 4.2384z"/> <path d="m101.9 126.73c-1.9172 9.0322 0.76231 16.186 3.3716 24.725l3.3716 14.985-4.1209-6.7433c-3.1395-4.7655-4.0628-5.6527-9.3657-5.2448 6.0653-8.8668 0.33642-20.4 6.7433-27.722z"/> </g> <path d="m171.39 165.83-1.5894 9.2715v8.4768l1.3245 9.5364 2.9139 2.3841 10.861 1.5894 10.331-2.1192 10.066-7.4172-7.947-1.5894-16.689-4.7682-5.5629-8.4768z" fill="#fdfcfc"/> <path d="m171.39 166.09-1.0596 5.298c6.9489 15.706 15.274 18.146 32.053 17.219-14.913 6.7612-23.235 9.926-32.848-1.0596l1.5894 11.921c13.711 3.6937 43.163-4.8951 43.444-22.517-16.189 20.716-35.592-13.39-43.179-10.861z" fill="#d5d0d8"/> <path d="m215.36 174.83-0.7947 3.4437c-16.168 17.264-40.11 5.7052-43.444-11.656l0.5298-2.3841 3.9735 6.8874 12.98 10.331 11.656 0.5298 8.7417-3.7086 6.0927-5.0331z" fill="#c83771"/> <path d="m216.16 173.56c-17.543 19.957-38.966 9.548-44.206-9.7403 7.981-18.574 16.826-22.526 32.218-24.725 10.896 7.9186 13.197 23.146 11.988 34.466z" fill="#de87aa"/> <path d="m212.41 164a17.045 15.172 0 0 1-17.002 15.172 17.045 15.172 0 0 1-17.088-15.096 17.045 15.172 0 0 1 16.916-15.248 17.045 15.172 0 0 1 17.174 15.019" fill="#162d50"/> <path d="m180.2 157.07c4.8597-8.9759 12.128-13.527 21.354-13.487 8.4887 0.0368 12.929 10.441 11.239 22.852-9.1911-7.4459-22.44-6.9102-32.592-9.3656z" fill="#5a5a68"/> <g fill="#d7e3f4"> <path d="m212.04 102.94c-4.6808 4.4067-6.2547 8.2502-7.6798 14.236-12.382-1.0613-8.32-9.5727-3.7463-15.922l5.8067 0.37463z"/> <path d="m194.06 91.887c8.6123 1.505 18.489 1.9061 25.1-1.8731l-7.4925-1.6858-8.4291-0.37463-5.2448 1.4985z"/> <path d="m221.99 175.1c-1.7325 2.6639-4.8825 7.7211-6.6225 10.331-3.3518 5.0276-7.1613 14.35-1.0596 14.57 15.366 0.55306 12.149-21.885 7.6821-24.901z"/> <path d="m198.41 130.07c-7.8678-11.925-28.076 9.9326-26.225 18.013-0.41118-8.9448 28.774-9.0816 26.225-18.013z"/> </g> <path d="m165.83 175.36c0.31402-18.454 6.2451-34.786 15.364-44.503-11.628 12.211-17.888 27.468-15.364 44.503z" fill="#214478"/> <path d="m191.52 125.56 6.6225 1.0596 11.656 5.0331-2.649-3.1788c-5.0366-3.886-10.351-4.085-15.629-2.9139z" fill="none"/> <path d="m193.11 125.56c5.5667 0.90993 11.026 2.3051 15.894 6.3576-2.0419-6.2175-11.491-7.5518-15.894-6.3576z" fill="#214478"/> <path d="m210.91 151.27a6.556 6.556 0 0 1-6.5394 6.5559 6.556 6.556 0 0 1-6.5724-6.5229 6.556 6.556 0 0 1 6.5063-6.5888 6.556 6.556 0 0 1 6.6052 6.4896" fill="#fdfcfc"/> <path d="m191.06 175.24a4.1209 3.9336 0 0 1-4.1105 3.9336 4.1209 3.9336 0 0 1-4.1312-3.9137 4.1209 3.9336 0 0 1 4.0897-3.9533 4.1209 3.9336 0 0 1 4.1518 3.8938" fill="#fdfcfc"/> <path d="m116.56 219.87c14.671 2.749 24.645 1.3817 39.735-0.2649-12.686 5.4313-33.591 4.222-40.53 1.3245z" fill="#214478"/> <path d="m158.15 218.54c3.3053-4.06 5.7908-9.156 6.3576-13.51 5.3717 5.4784-2.9588 11.292-6.3576 13.51z" fill="#214478"/> <path d="m115.38 214.02c11.408 8.8119 37.514 2.8764 44.955-5.2448-3.9526-12.006-41.231-8.8219-44.955 5.2448z" fill="#87aade"/> <path d="m120.63 184.05s-9.7037-4.813-8.991-8.991c0.58224-3.4136-1.8386-17.196 9.3657-4.4955-3.725-8.4357-3.5697-15.848-2.997-24.725l14.236-13.487c5.7939 4.172 11.684 7.9596 16.109 17.607 1.8962 8.4235-3.4484 15.813-5.994 23.601 4.7214-8.2536 8.2278-14.016 13.861-14.61 1.971 8.316 2.1916 11.295-6.7433 20.23" fill="none" stroke="#214478" stroke-linejoin="miter" stroke-miterlimit="4"/> <g fill="#214478"> <path d="m115.23 141.19c-3.3186-2.7955-2.9133-5.4233-1.1581-8.5641 3.3525-0.64214 6.6676 3.116 5.4321 4.8701-2.6894-5.6934-6.3344 6.5e-4 -4.2739 3.694z"/> <path d="m156.97 135.62c0.56037 3.7915-3.0273 8.555-5.0574 6.4623 2.7421-1.5326 3.5562-3.7358 2.4351-5.3384-1.1488-1.6422-3.9046-1.064-5.994 0.46828-0.46625-3.4292 6.4549-3.6186 8.6164-1.5922z"/> <path d="m121.94 129.54c1.8164-18.634 5.2959-20.885 16.671-24.538 5.9129 2.1483 12.541 11.959 6.7433 25.1 1.6183-11.519-0.51914-20.309-8.0545-21.354-8.535-1.1835-13.112 12.999-15.36 20.792z"/> <path d="m126.81 108c-0.11077-2.8155 0.16198-3.9901 1.8959-4.7698 1.3036-0.58621 2.5878 0.41018 3.1616 2.8967-3.899-5.0191-3.5596 1.3722-5.0574 1.8731z"/> <path d="m151.39 116.29c5.0186-4.7405 4.8747-6.4121-1.8543-6.2252 7.131 2.6684-4e-3 3.3714 1.8543 6.2252z"/> <path d="m139.21 99.205c5.1221-5.9468 12.719-11.191 16.821-6.755 3.6464 3.9429-1.7175 10.333-7.1523 14.437 0.15254-5.3981 6.7622-4.865 5.8278-13.113-4.2092-4.283-14.857 6.1282-15.497 5.4305z"/> </g> <g fill="#162d50"> <path d="m111.79 223.71c5.3856-4.7547 7.042 2.528 6.8874 7.0199-1.9936-4.2669-2.9184-8.4386-5.298-2.2517l-1.1921-2.3841z"/> <path d="m150.97 230.87c3.77-6.8207 7.2194-9.2035 11.801-6.7433-2.0062 7.2105-5.068-1.5568-11.801 6.7433z"/> </g> <path d="m104.56 175.67c-0.15574 10.654 3.2093 20.818 9.6252 27.023-1.2762-6.0271-3.0094-26.196-9.6252-27.023z" fill="#de87aa"/> <path d="m206.09 136.95c-30.639 4.4838-41.171 23.565-35.496 63.842 38.578 6.3181 63.458-30.136 35.496-63.842zm-2.0138 3.572c26.531 32.738 4.0109 64.024-32.483 57.887-5.6124-39.12 5.178-52.033 32.483-57.887z" fill="#162d50"/> <path d="m196.34 89.892c-30.497-11.793-60.066-8.5953-87.645 20.622-10.513 11.632-8.0912 30.72-12.889 40.815-3.6115 8.9711-1.3991 13.118 4.2963 19.763 0.93922 15.579 7.6437 27.674 14.178 42.104l-3.0074 6.0149c-0.0613 12.185 9.2978 20.889 15.896 30.504 18.875 9.8265 29.343 8.8724 49.838-6.0149 3.0074-2.1482 36.519-16.326 36.519-16.326v-3.8667c32.592-12.534 37.393-43.791 24.489-61.867 7.0829-7.6329 21.604-22.955 12.459-28.356-9.121 2.5058-17.564 3.3573-22.771-1.7185 30.241-22.848-6.7014-51.814-31.363-41.675z" fill="none" stroke="#214478" stroke-linejoin="miter" stroke-miterlimit="4" stroke-width="3"/> <path d="m105.32 175.89c-0.15574 10.654 2.8556 17.882 9.2715 25.43-1.867-6.2956-2.6557-24.603-9.2715-25.43z" fill="#162d50"/> </g> <g transform="translate(150.58 339.27)"> <g transform="matrix(-.43945 0 0 .4612 348.47 -109.52)"> <g transform="translate(20.89 -3.9654)" stroke="#214478"> <path d="m135.12 24.184c-16.263-0.10388-30.227 4.1213-39.43 21.041-0.44097 1.8143-0.48 3.3879 0.73438 4.209-1.1024 1.285-1.8634 2.7885-1.8379 4.7109-10.163 5.2078-17.59 12.15-17.59 12.15l2.1582-0.85547c-0.58354 0.42795-1.1536 0.90562-1.7148 1.416-0.52699 0.18421-1.0673 0.36838-1.5527 0.54883 5.0546 1.9817 11.338 4.4439 16.793 3.6445 1.0624-0.11028 2.0173-0.1968 2.9043-0.26562 2.7879 8.8908 4.5439 9.8133-2.1152 18.166l-0.03906-2e-3 -0.30859 0.43945c-0.09897 0.12266-0.18075 0.2296-0.2832 0.35547 0.0068 0.0069 0.01277 0.01261 0.01953 0.01953l-20.041 28.537s-15.236 30.246-15.236 31.143c0.82001 0.30238 1.6107 0.6353 2.3887 0.98242l-0.2832 0.5957c-3.7181 1.3707-7.6481 2.8643-8.3789 3.3516-1.3443 0.8962-23.076 45.033-23.076 45.033s-0.31791 1.7652-0.55664 3.082c-0.08333-0.27341-0.16774-0.54983-0.26562-0.89453l-5.2285 15.369c0.01584 0.0349 0.02543 0.0649 0.04102 0.0996-5.5112 11.825-13.537 18.834-15.408 35.07-0.25423 2.2061 3.5939 0.41055 6.1172-0.98047-3.156 4.6526-4.2821 8.9522-0.60742 11.885 3.0011-1.8048 6.1966-3.7644 9.4492-5.8906 4.3819-2.0693 8.7453-4.1723 13.082-6.3242-0.22039 0.48764-0.44602 0.99908-0.66406 1.4785l-0.76172-0.48438-1.9004 4.2774 0.70508 0.51758c-1.8449 4.0381-3.5834 7.8935-5.0977 11.686l-0.20117-0.16211-1.5859 3.4844 0.25195 0.72461c-0.78232 2.1949-1.4794 4.4161-2.0898 6.6934-10.362 20.825-18.952 43.334-24.143 66.727-0.046405 0.72237-0.044241 1.4874-0.019531 2.2676-0.036665 0.85611-0.024053 1.7292 0.019531 2.6445 0.058426 0.03 0.11727 0.0512 0.17578 0.0801 0.89037 8.0589 4.2441 17.207 4.2441 17.207 6.9823-1.1242 11.455-1.0192 19.027-9.5254l0.59961-1.5918c0.11423 1e-3 0.23676 7e-3 0.34961 8e-3l0.97852-3.5273 3.3027-8.748 1.1055 0.55274 15.209-40.242 0.31641-8.2383-0.36328 0.78515c0.07661-0.40782 0.15272-0.8185 0.23047-1.2207 0.04314-0.0132 0.0899-0.0259 0.13281-0.0391l0.04492-0.875c2.5418-12.864 5.7353-22.956 11.148-34.43 0.0654-9e-3 0.15192-0.0158 0.21484-0.0254l1.668-3.5957c0.42758 0.50622 0.82772 1.0649 1.1836 1.6953l13.488-27.877c3.2444-1.7894 6.4822-3.5932 9.7148-5.4102-2.6306 6.8784 2.2219 7.4802 5.9141 8.9238 6.941 2.7138 14.056 2.8998 21.129 1.2422l13.582 8.9726c0.80976 3.2317 1.5849 5.8726-0.77344 8.4453l-5.2285 3.0098c-2.4919 6.9 4.4946 3.4751 9.3789 0.95703 0.72752 0.24808 5.6816-2.2246 6.6211-2.2246 3.6712-0.63228 7.4293 1.8444 10.535 3.8926l1.5058 2.7617c3.1799 1.3628 3.7646 1.1926 1.9004 4.4356 2.7313-1.6922 6.9168-2.7027 5.8633-6.0195l-2.625-0.75c0.19642-1.0194 0.23849-2.4661 0.0898-4.4785-1.8376-2.8446-2.91-3.9002-5.6133-5.332-4.2e-4 -0.0708-7e-3 -0.1384-0.0117-0.20703 1.2984-0.84222 2.0284-0.22278 1.6641-4.4414l-6.4961 0.1582 0.32617 0.31641c-1.8763-0.21897-3.551-0.67621-5.0977-1.3125l-5.7695-3.3691c-3.3071-2.4215-6.5338-5.3554-10.816-7.9082 22.369-9.9564 43.356-35.824 55.871-55.504-0.18279 0.12845-0.36422 0.2509-0.54687 0.37891 6.8563-9.3539 12.614-20.322 16.902-33.092l0.74609-5.832c2.8721-7.7164 3.3323-16.808-0.20312-26.695l-0.35352-3.1816c0.16381 0.33203 0.31365 0.64489 0.48242 0.98243-0.59446-9.1816-5.3868-17.898-9.1855-24.869l-0.81836-0.27344c0.11502-0.10352 0.22286-0.20436 0.28906-0.28711 5.3318-10.044-8.2783-31.84-17.209-39.141-0.19975-2.0165-0.71867-3.7296-1.7168-4.8652 6.6748-3.0005-5.9782-9.9258 8.4688-12.553-12.492-1.4454-24.697-3.5422-35.824-3.6133zm-106.42 208.07c0.17006 0.50681 0.36356 0.98376 0.58789 1.4238-2.8123 2.8289-6.3769 6.1372-9.6914 9.5664 2.9314-3.9757 6.0792-7.723 9.1035-10.99z" fill="none" stroke="#214478" stroke-linejoin="miter" stroke-miterlimit="4" stroke-width="11.106"/> </g> <g transform="translate(20.89 -3.9654)"> <path d="m149.24 259.1 3.327 0.95057c1.0535 3.3169-3.1305 4.328-5.8618 6.0202 1.8642-3.2429 1.2788-3.0732-1.9011-4.436l-1.9011-3.4854z" fill="#626261"/> <path d="m139.57 245 6.4955-0.15842c0.38656 4.4758-0.45124 3.4843-1.9011 4.5944z" fill="#626261"/> <path d="m122.46 243.58c0.8676 3.8293 2.1809 6.7664-0.47528 9.6641l-5.2281 3.0101c-2.9398 8.1405 7.5317 1.8022 11.882-0.31685l0.63371-10.456z" fill="#fff6f3"/> <path d="m107.73 234.86 17.744 11.724c1.0109 3.1504-0.68297 7.9533 0.63371 10.615 0.63371 0.31685 5.7034-2.218 6.654-2.218 8.8243-1.5198 18.397 15.122 17.269-0.15843-2.1791-3.3733-3.2549-4.2234-7.2877-6.1787l-28.2-16.476z" fill="#bba8b2"/> <path d="m117.55 232.33c9.6349 5.4965 13.838 13.15 24.873 13.15 1.1979 1.7682 2.3583 2.8539 1.9011 4.9113l-11.882-5.545-17.585-12.516z" fill="#fff"/> <path d="m141.95 255.62c2.6217-0.98955 4.9111-1.0756 7.6045-0.79214v4.436c-3.2992 1.5206-5.6363-1.342-7.6045-3.6438z" fill="#6b616f"/> <path d="m112.33 233.59 21.071 15.367-1.7427 0.63371-22.497-15.209z" fill="#8c7e8c"/> <path d="m115.61 231.89 20.613 13.891 6.4975 2.9127 5.3772 3.8089-0.22405 2.2405-3.5848-2.0165-0.67215 2.0165-29.351-21.509 2.2405-1.1203z" fill="#463b4c"/> <path d="m22.814 358.44c-7.5719 8.5062-12.045 8.4003-19.027 9.5245 0 0-4.9758-13.554-4.4205-22.199 5.5984-25.231 15.148-49.439 26.616-71.609l14.892 36.438" fill="#93c7ff"/> <path d="m44.677 296.65-0.31686 8.2382-15.209 40.241-2.5348-1.2674 12.357-34.854z" fill="#4564b5"/> <path d="m60.519 251.66c-8.9822 16.805-13.191 29.141-16.476 47.211l-5.7034 12.674c-16.592 0.48178-12.443 2.9794-17.427-12.357 0.02989-21.318 7.3953-33.346 15.843-52.598l13.942-6.3371z" fill="#92b3f3"/> <path d="m46.261 251.97-30.418 86.185-0.31686-2.8517 30.735-87.769z" fill="#7482ba"/> <path d="m73.194 229.48-14.258 29.468c-3.0868-5.4683-9.1309-6.0995-13.625-4.7528l-3.1686-10.456z" fill="#6576cc"/> <path d="m38.498 247.54c2.9681 3.5461 4.7967 4.8312 3.327 9.0304-4.783-0.34754-4.2123-3.7659-5.2281-7.9214z" fill="#403c78"/> <path d="m30.577 230.27c-5.181 5.3661-11.003 12.347-15.526 19.645 0 0-8.613 5.4698-8.2382 2.218 1.9019-16.504 10.169-23.462 15.684-35.646l5.8618 6.0203z" fill="#817fc8"/> <path d="m87.38 222.71c-23.409 13.274-47.046 25.937-71.472 37.192l32.711-29.575 34.28-12.323 14.339-0.4481z" fill="#b0b2df"/> <path d="m48.395 233.68c-9.556 12.866-24.302 22.272-36.072 29.351-10.161-8.1091 16.295-26.657 21.285-34.28z" fill="#57497f"/> <path d="m89.396 219.57c-19.166 3.356-31.963 9.8652-48.619 18.82 0 0 2.9127-10.306 3.8089-11.203 0.8962-0.8962 66.991-41.673 66.991-41.673l10.754 3.3608-2.4646 7.8418z" fill="#6883ed"/> <path d="m174.09 177.22c-18.104 28.469-53.935 69.908-86.035 57.357-4.4369-1.7348-10.588-2.2216-3.3608-13.891 34.953-9.2522 61.379-23.778 89.396-43.466z" fill="#fff"/> <path d="m192.91 125.24-2.4646 19.268c-17.837 53.118-60.902 75.361-104.18 77.746 9.8212-15.413 30.977-18.03 31.591-35.176z" fill="#fffefe"/> <path d="m102.62 194.7-59.822 38.089-16.58-12.995s0.22405-8.5139 0.22405-9.6342 1.7924-10.754 1.7924-10.754 21.733-44.138 23.077-45.034c1.3443-0.8962 14.563-5.6013 14.563-5.6013l34.952 22.181z" fill="#504267"/> <path d="m133.08 178.15c-0.64005 11.939-19.579 15.507-21.229 11.407-6.399 5.8751-9.938 12.002-15.367 3.327-4.3971 2.6558-9.6322-1.9405-8.0798-4.436-6.8671-1.068-5.7394-8.8311-3.8023-14.575z" fill="#fff"/> <path d="m169.36 159.61c-9.048 8.0089-12.286 16.647-24.715 17.585 0.89242 6.5247-7.224 3.5552-13.15 3.4854-11.167 8.2607-13.138-1.0311-14.892-3.0101l1.7427-9.3472 43.092-10.298z" fill="#9283a4"/> <path d="m117.87 178.62c0.20012 6.1308-6.2779 8.7221-10.932 11.248-1.3116-1.6385-1.243-3.3748-1.4258-5.3866-3.9378 2.4949-7.7391 2.8383-8.2382-3.1686-5.0811 0.47733-5.8245-0.44703-6.1787-5.2281l13.783 0.79214 6.9708 1.9011 3.9607-1.4258z" fill="#392a5b"/> <path d="m115.65 177.35c4.1792 6.5493-6.8262 9.8029-7.763 3.4854-7.0273 4.5792-8.1843 0.11697-9.6641-3.327l1.5843-5.7034h11.407z" fill="#6c7bdd"/> <path d="m120.88 174.03c-1.2322 9.6347-9.1664 3.3061-11.09-1.109l4.2776-2.8517z" fill="#392a5b"/> <path d="m145.91 171.97-0.63371 2.6933c-2.8488 1.0737-5.1913 0.51581-8.0798 0-1.6746 2.2214-2.7709 2.0596-5.3865 2.0596-4.1127 4.3562-5.8517-0.88813-9.981-0.63371l-3.1686-3.0101 5.3865-2.5348h11.724l8.7135-0.15843z" fill="#392a5b"/> <path d="m157.16 164.84c-3.2691 5.0279-7.0348 4.626-10.456 3.327l-6.654-6.8124 7.2877-2.6933z" fill="#392a5b"/> <path d="m147.18 159.77c0.76377 2.4872 1.7875 2.5907 4.1191 3.327 3.3337 7.3532 9.1954 0.33551 11.565-3.327l-8.7135-4.2776z" fill="#566dd1"/> <path d="m111.37 170.07c3.873 6.7726 4.8581 9.5868 9.6641 3.0101 1.6999 1.5496 3.3666 0.40717 5.3866-0.15843l2.5348 2.3764c2.6339 0.0672 3.1884-0.92621 4.7528-2.8517 1.875 2.157 3.7265-0.18717 6.0202-0.31686 2.274 0.7111 4.1795 0.73262 6.4955 0.47528l3.1686-6.0202c-3.255-0.53846-4.182-3.2214-4.5944-5.545l-31.052 5.545z" fill="#799aff"/> <path d="m176.49 156.44c-8.3228 9.1903-16.597 2.9212-25.507 0.31685 0 0 0.31686-40.082 0.47529-40.716 0.15842-0.63371 7.2877-3.8023 7.2877-3.8023l17.744 23.923z" fill="#6c5a85"/> <path d="m93.429 88.948-20.613 29.351s-15.235 30.247-15.235 31.143c4.8571 1.7911 8.9044 4.3794 12.995 7.6177 0.3827 7.4407-0.76858 7.7592 5.3772 10.978 0.45412 3.6294 1.2845 2.7686 4.481 2.0164l4.7051 6.2734c7.6724 0.77799 11.862 6.868 15.235-1.7924 17.815 2.6213 8.9504-9.0195 21.733-4.9291 3.1493-1.4546 5.67-1.5075 8.962-1.1202 1.9431-1.968 3.4413-2.0666 6.0494-2.2405 3.4637-3.5676 7.0917-1.867 9.4101-4.9291 5.7513-4.1071 10.524-4.528 17.252-4.7051l-0.4481-8.962s-4.481-6.2734-4.9291-7.1696-2.6886-9.4101-2.6886-9.4101l0.67216-15.235 2.9126-14.563-11.203-9.6342z" fill="#887fd4"/> <path d="m189.77 108.89c9.7478 22.341-1.1459 41.041-15.011 49.739 5.4012-23.674-13.514-25.772-18.372-39.209-3.5433-3.7777 0.22738-16.353 1.1202-15.684l23.749-5.8253z" fill="#ae99a2"/> <path d="m149.67 94.549c4.6332 20.83 30.67 16.899 36.52 10.082l-18.82-17.028-15.684 3.8089z" fill="#c0b0cf"/> <path d="m164.01 89.172c7.5116 15.407 15.678 6.301 27.334 25.99l-1.1203-10.082c-5.3107-12.591-11.252-16.959-16.356-18.596z" fill="#fffeff"/> <path d="m172.74 88.948c10.877 3.6166 13.5 11.091 18.372 20.837-0.59446-9.1816-5.3874-17.899-9.1861-24.87l-2.6886-0.8962z" fill="#fffcff"/> <path d="m108.21 95.129-4.5944-7.1292 1.4258-10.615 46.895-8.7135 15.051 15.843-1.4258 3.8023c-30.882 9.8882-44.763 10.02-57.351 6.8124z" fill="#cbb6cc"/> <path d="m128.96 79.603c12.618 9.9241 22.217-1.2361 22.021-10.773l-7.9214-10.456s-5.7034 1.5843-6.0203 2.218c-0.31685 0.63371-8.0798 19.011-8.0798 19.011z" fill="#fff"/> <path d="m95.215 69.622c3.0849 10.396 5.3786 10.593-2.3764 20.12 5.6288 5.7716 8.593 4.451 16.635 5.8618-5.6409-7.3057-4.9421-9.2799-3.327-18.061l-7.4461-9.0304z" fill="#fff"/> <path d="m96.324 70.256c17.981 24.475 53.167 6.7852 41.35-9.1888l-27.091-3.9607z" fill="#b6a6b2"/> <path d="m96.799 49.66c-1.6129-0.73271-1.5929-2.4452-1.109-4.436 15.499-28.496 44.504-20.985 75.253-17.427-15.202 2.7642-0.38079 10.289-9.6641 12.991l-10.773 7.9214-38.34-1.7427z" fill="#8f83d6"/> <path d="m100.76 48.868c9.3983-30.204 38.844-20.032 58.46-11.248-17.829-3.0847-35.946-5.3008-40.874 6.1787l-15.209 9.6641-3.1686-1.2674z" fill="#d5caff"/> <path d="m94.581 54.413c-0.2531-4.8809 4.5444-7.0843 7.2877-9.8225l0.31685 6.4955z" fill="#403956"/> <path d="m104.4 50.136c-14.836 4.3783-27.408 16.16-27.408 16.16l25.982-10.298z" fill="#dfdbfc"/> <path d="m163.18 44.432c8.8639 6.3831 23.756 29.493 18.219 39.924-0.63371 0.79214-3.8023 2.6933-3.8023 2.6933s-7.6045-1.2674-8.0798-2.0596c-0.47529-0.79214-9.5057-13.15-9.6641-13.783-0.15843-0.63371-0.79214-10.456-0.63371-11.09 0.15842-0.63371 3.9607-15.684 3.9607-15.684z" fill="#decaf9"/> <path d="m170.94 84.673c22.6 1.0453-6.0226 6.4206-16.952 7.6045-5.9869 8.4683-19.204 6.4125-27.566 6.654 13.206-2.8458 28.035-10.225 31.369-10.298 2.8847-0.59432 4.7464-1.7254 6.8124-3.6438z" fill="#705d86"/> <path d="m150.82 67.087c-7.452 3.8991-8.8509-3.8175-11.248-4.2775-6.594 4.092-10.879 3.544-17.427 0.63371l-1.9011-5.7034 31.844-10.298 6.1787 10.615z" fill="#a094a7"/> <path d="m115.65 43.64c11.998-6.2711 21.902-6.6278 36.755 0.95057l-38.181 11.565z" fill="#c4b2cf"/> <path d="m118.19 61.067c0.7904 7.6068-11.09 11.681-11.09 2.6933" fill="#988d8f"/> <path d="m125.16 54.572c-8.7689 0.01617-4.2928 12.689 2.218 6.1787 0.89929-0.89929 1.2746-1.8868 0.79214-2.8517" fill="#746570"/> <path d="m153.67 50.452c-13.518-2.1149-5.5917 11.627-29.626 10.298l3.0101-4.1191 6.654-5.7034 16.476-5.0697z" fill="#f9eaf7"/> <path d="m134.35 49.66 27.408-9.9809c6.1029 4.3373-0.85426 24.9 0.31685 25.665 7.6343 1.1554 4.6262 15.318 11.248 19.962-7.7133 6.3643-18.002-4.0178-24.873-12.833-2.0863-10.079 16.455-17.768-2.6933-24.715l-12.041 4.2775z" fill="#2b1d2b"/> <path d="m103.14 51.561c2.9239-9.8175 9.5206-1.6866 13.466-11.248 3.2645 12.032-5.8653 14.452 7.763 12.674l1.7427 3.327c-7.1642 0.99672-5.7253 0.4741-3.327 6.8124l-12.991-1.7427z" fill="#2b1d2b"/> <path d="m103.45 51.72c7.6652-3.3433 11.309 4.9023 6.1787 9.8225l-4.7528-6.8124z" fill="#97859d"/> <path d="m80.957 64.077c3.2975-5.4184 17.872-5.8499 22.18-12.674 8.9145 4.4407-0.0243 4.7216 9.6641 9.9809l-28.992 5.2281z" fill="#bdb1d2"/> <path d="m76.679 67.563c6.1269-6.1369 14.124-6.8524 18.378-5.3865 0 0-0.79214 1.2674-1.4258 1.5843-0.63371 0.31686-16.952 3.8023-16.952 3.8023z" fill="#796593"/> <path d="m126.74 63.444c-13.753-6.3677-38.875-0.49248-50.855 3.9607 5.0546 1.9817 11.339 4.4432 16.793 3.6438 8.3597-0.86774 10.139-0.31686 23.447-0.47528-4.4678-2.2853-8.5102-2.9773-6.9708-7.2877 4.2686-0.0408 8.3572-1.602 12.041 0.79214 3.5732 1.2261 4.4145 0.17575 5.545-0.63371z" fill="#514358"/> <path d="m122.78 54.22c3.7483 6.7159 11.181 3.0246 12.771-2.9127-3.4243-7.4078-13.579-3.4748-12.771 2.9127z" fill="#30222a"/> <path d="m130.23 54.096c-2.2704 3.1621-4.2258 2.5544-6.0202-0.31686z" fill="#ddd"/> <path d="m127.48 50.411c7.4876-3.4442-5.2566-1.3142 0 0z" fill="#ddd"/> <path d="m128.96 59.958-4.9113 3.8023" fill="#f9eaf7"/> <path d="m57.192 213.63c-1.1379 6.9096-5.853 9.4462-11.407 12.833 0.60791 5.8845-0.54921 8.4807-4.5944 12.357-12.143-0.72255-13.036-4.6377-13.783-15.367-3.444-0.92881-3.842-3.4461-5.2281-6.4955l5.2281-15.367c1.017 3.5814 1.0644 3.1983 3.9607 1.2674l-3.6438 14.417c3.3397-1.6248 5.9125-2.745 9.5057-2.0596-2.6444-5.8704 3.5652-5.143 9.3472-11.407 1.7398 5.6933 5.6965 7.0259 10.615 9.8225z" fill="#fff"/> <path d="m31.686 264.33c1.1052 3.3158 2.5345 4.3905 5.3865 6.0202-1.8534 8.7154-4.8405 3.4437-7.2877-1.4258z" fill="#403c78"/> <path d="m46.261 256.41c4.0351 1.1318 7.8134 0.48437 11.882 0l-2.0596 4.436c-4.0213 0.61627-13.237 0.72692-9.8225-4.436z" fill="#403c78"/> <path d="m38.656 271.93c-4.4162 8.0447 10.829 10.075 10.932 2.5348-3.9966 0.69682-7.7942-1.1084-10.932-2.5348z" fill="#403c78"/> <path d="m33.428 251.81 1.7427 1.109-1.2674 4.9113-2.3764-1.7427z" fill="#403c78"/> <path d="m26.933 268.13 1.5843 1.2674-1.9011 5.8618-1.2674-3.6438z" fill="#403c78"/> <path d="m23.764 282.07c2.2551 2.9717 3.2937 5.4736 6.9708 5.7034l-0.79214 5.0697c-3.5705 0.70503-5.1026-3.3775-7.1292-5.8618z" fill="#403c78"/> <path d="m32.636 290.63c2.9844 3.2146 8.0947 2.1238 12.199 2.3764l-0.15843 3.1686c-4.8159 1.4778-11.084 3.0561-13.783-1.109 0-0.63372 1.7427-4.436 1.7427-4.436z" fill="#403c78"/> <path d="m26.141 309.01c3.2429 3.4245 7.4417 2.6138 11.882 2.8517l-2.6933 4.7528c-6.5045-0.0255-9.1079 2.8296-10.773-4.1191z" fill="#403c78"/> <path d="m15.209 306.47c3.2308 2.7364 5.853 2.2286 9.5057 1.2674-0.84045 5.8566-4.7945 5.215-9.6641 5.0697-1.6296-2.6077-0.93659-3.6604 0.15843-6.3371z" fill="#403c78"/> <path d="m19.645 328.97c3.9929 2.9032 7.9877 1.7667 12.674 1.4258-2.6047 9.8682-16.435 8.7218-12.674-1.4258z" fill="#403c78"/> <path d="m7.9214 324.53 10.615 3.8023-2.3764 4.1191c-8.2885-0.46931-9.8877 0.32581-8.2382-7.9214z" fill="#403c78"/> <path d="m10.773 347.82c4.6151 3.4491 9.4427 3.9308 14.575 3.327l-1.5843 5.7034c-5.5124-0.0451-12.727-0.57143-15.843-4.1191z" fill="#403c78"/> <path d="m10.932 346.55c-4.1075-0.0544-6.9871-1.8636-10.456-3.8023-1.1176 2.6816-1.2429 5.1102-1.109 7.9214 3.0798 1.5804 6.2767 1.6222 9.6641 1.7427z" fill="#403c78"/> <path d="m130.54 250.71 1.4258 1.7427c-2.9013 1.7031-16.191 10.719-14.734 4.1191z" fill="#655154"/> </g> </g> </g> </svg>